<?xml version="1.0" encoding="UTF-8" standalone="no"?>
<!-- Uploaded to: SVG Repo, www.svgrepo.com, Generator: SVG Repo Mixer Tools -->

<svg
   width="799.96832"
   height="800"
   viewBox="0 0 29.998812 30"
   version="1.1"
   id="svg1"
   sodipodi:docname="settings_icon.svg"
   xmlns:inkscape="http://www.inkscape.org/namespaces/inkscape"
   xmlns:sodipodi="http://sodipodi.sourceforge.net/DTD/sodipodi-0.dtd"
   xmlns="http://www.w3.org/2000/svg"
   xmlns:svg="http://www.w3.org/2000/svg"
   xmlns:sketch="http://www.bohemiancoding.com/sketch/ns">
  <sodipodi:namedview
     id="namedview1"
     pagecolor="#ffffff"
     bordercolor="#000000"
     borderopacity="0.25"
     inkscape:showpageshadow="2"
     inkscape:pageopacity="0.0"
     inkscape:pagecheckerboard="0"
     inkscape:deskcolor="#d1d1d1">
    <inkscape:page
       x="0"
       y="0"
       width="29.998812"
       height="30"
       id="page2"
       margin="0"
       bleed="0" />
  </sodipodi:namedview>
  <title
     id="title1">settings</title>
  <desc
     id="desc1">Created with Sketch Beta.</desc>
  <defs
     id="defs1" />
  <g
     id="Page-1"
     stroke="none"
     stroke-width="1"
     fill="none"
     fill-rule="evenodd"
     sketch:type="MSPage"
     transform="translate(-7.0398476e-4)">
    <g
       id="Icon-Set-Filled"
       sketch:type="MSLayerGroup"
       transform="translate(-103,-362)"
       fill="#000000">
      <path
         d="m 118,382 c -2.739,0 -4.958,-2.238 -4.958,-5 0,-2.762 2.219,-5 4.958,-5 2.739,0 4.959,2.238 4.959,5 0,2.762 -2.22,5 -4.959,5 z m 14.008,-1.464 -2.323,-1.352 c 0.13,-0.71 0.216,-1.435 0.216,-2.184 0,-0.748 -0.086,-1.474 -0.216,-2.184 l 2.323,-1.352 c 0.949,-0.552 1.273,-1.776 0.725,-2.732 l -1.983,-3.464 c -0.547,-0.956 -1.761,-1.285 -2.709,-0.732 l -2.347,1.365 c -1.096,-0.94 -2.342,-1.709 -3.727,-2.204 V 364 c 0,-1.104 -0.888,-2 -1.984,-2 h -3.966 c -1.096,0 -1.984,0.896 -1.984,2 v 1.697 c -1.385,0.495 -2.631,1.264 -3.727,2.204 l -2.347,-1.365 c -0.948,-0.553 -2.162,-0.224 -2.709,0.732 l -1.983,3.464 c -0.548,0.956 -0.223,2.18 0.725,2.732 l 2.323,1.352 c -0.13,0.71 -0.216,1.436 -0.216,2.184 0,0.749 0.086,1.474 0.216,2.184 l -2.323,1.352 c -0.948,0.552 -1.273,1.776 -0.725,2.732 l 1.983,3.464 c 0.547,0.956 1.761,1.285 2.709,0.732 l 2.347,-1.365 c 1.096,0.94 2.342,1.71 3.727,2.204 V 390 c 0,1.104 0.888,2 1.984,2 h 3.966 c 1.096,0 1.984,-0.896 1.984,-2 v -1.697 c 1.385,-0.494 2.631,-1.264 3.727,-2.204 l 2.347,1.365 c 0.948,0.553 2.162,0.224 2.709,-0.732 l 1.983,-3.464 c 0.548,-0.956 0.224,-2.18 -0.725,-2.732 z M 118,374 c -1.643,0 -2.975,1.344 -2.975,3 0,1.657 1.332,3 2.975,3 1.643,0 2.975,-1.343 2.975,-3 0,-1.656 -1.332,-3 -2.975,-3 z"
         id="settings"
         sketch:type="MSShapeGroup"
         style="fill:#ffffff;fill-opacity:1" />
    </g>
  </g>
</svg>
