<?xml version="1.0" encoding="UTF-8" standalone="no"?>
<!-- Created with Inkscape (http://www.inkscape.org/) -->

<svg
   version="1.1"
   id="svg1"
   width="3276.8257"
   height="1280.0144"
   viewBox="0 0 3276.8256 1280.0144"
   sodipodi:docname="1.png"
   xml:space="preserve"
   inkscape:export-filename="1.svg"
   inkscape:export-xdpi="96"
   inkscape:export-ydpi="96"
   xmlns:inkscape="http://www.inkscape.org/namespaces/inkscape"
   xmlns:sodipodi="http://sodipodi.sourceforge.net/DTD/sodipodi-0.dtd"
   xmlns="http://www.w3.org/2000/svg"
   xmlns:svg="http://www.w3.org/2000/svg"><defs
     id="defs1" /><sodipodi:namedview
     id="namedview1"
     pagecolor="#ffffff"
     bordercolor="#000000"
     borderopacity="0.25"
     inkscape:showpageshadow="2"
     inkscape:pageopacity="0.0"
     inkscape:pagecheckerboard="0"
     inkscape:deskcolor="#d1d1d1"><inkscape:page
       x="0"
       y="0"
       width="3276.8257"
       height="1280.0144"
       id="page2"
       margin="0"
       bleed="0" /></sodipodi:namedview><g
     inkscape:groupmode="layer"
     inkscape:label="Image"
     id="g1"
     transform="translate(0.00454518,-0.00465082)"><rect
       style="fill:#ffffff;fill-opacity:1"
       id="rect9"
       width="3276.8259"
       height="1280.0144"
       x="-0.004545182"
       y="0.0046508238" /><path
       style="fill:#157a42;fill-opacity:1"
       d="m 1566.8951,962.54585 c -6.4215,-1.0081 -11.0849,-4.77515 -12.1638,-9.82585 l -0.2221,-1.04 h 4.1318 4.1318 l 0.7736,1.18972 c 1.5819,2.43268 4.1099,3.44471 8.0414,3.21913 2.0245,-0.11616 2.7418,-0.31107 3.9939,-1.08518 2.9058,-1.79649 3.6145,-3.60847 3.6153,-9.24367 l 6e-4,-3.84 -0.6102,1.00078 c -1.0284,1.68654 -2.9236,3.36107 -4.7997,4.24088 -1.6189,0.75919 -2.1518,0.83834 -5.6443,0.83834 -3.8043,0 -3.8891,-0.0161 -6.2594,-1.18753 -6.0049,-2.96781 -9.063,-8.79246 -9.0368,-17.21247 0.026,-8.3997 3.1076,-14.2821 9.0099,-17.19918 2.4016,-1.18693 2.4743,-1.20082 6.2863,-1.20082 3.5585,0 3.995,0.068 5.6465,0.87903 1.9251,0.94541 3.8317,2.61641 4.8033,4.20976 l 0.6044,0.99121 v -2.8 -2.8 h 4.32 4.32 v 18.82123 c 0,12.24673 -0.1222,19.48449 -0.3498,20.72 -1.0119,5.49178 -4.8026,9.34004 -10.6902,10.85251 -2.4281,0.62377 -7.4224,0.86181 -9.9049,0.47211 z m 6.3004,-21.80627 c 1.7327,-0.51914 4.2012,-2.82031 5.1872,-4.83562 1.0429,-2.1316 1.4868,-5.59185 1.1062,-8.62309 -0.1632,-1.29937 -0.6495,-3.05156 -1.1062,-3.98483 -1.047,-2.14 -3.4998,-4.35768 -5.4119,-4.89303 -1.7735,-0.49653 -5.0991,-0.28404 -6.4447,0.41179 -3.4917,1.80563 -5.5437,6.66546 -5.1317,12.15347 0.3711,4.94146 2.8043,8.81343 6.1731,9.82321 1.3561,0.40648 4.1851,0.38039 5.628,-0.0519 z M 1819.84,937.28 V 912 h 4.32 4.32 v 2.58488 2.58487 l 1.0507,-1.38487 c 2.2291,-2.93831 5.5933,-4.42488 10.0137,-4.42488 6.0832,0 10.4868,2.80207 13.348,8.49367 1.6247,3.232 1.9791,5.05914 1.9835,10.22633 0,4.42322 -0.068,5.0192 -0.9112,7.59246 -1.7716,5.40466 -5.2507,9.12629 -9.8327,10.51802 -1.8294,0.55565 -2.824,0.65731 -5.3496,0.54683 -4.0341,-0.17648 -6.0176,-1.07158 -8.5322,-3.85027 l -1.7702,-1.9561 v 9.81453 9.81453 h -4.32 -4.32 z m 21.3777,3.65113 c 1.9925,-0.99291 3.349,-2.55072 4.294,-4.93113 0.9488,-2.39009 1.034,-8.88366 0.1499,-11.41817 -1.3734,-3.93677 -4.358,-6.18444 -8.2044,-6.1787 -3.7644,0.006 -6.4929,1.85889 -8.2398,5.59687 -0.8387,1.79439 -0.8974,2.19215 -0.8974,6.08 0,3.88785 0.059,4.28561 0.8974,6.08 0.4935,1.056 1.3575,2.40563 1.92,2.99919 2.4961,2.63406 6.8237,3.39477 10.0803,1.77194 z M 1861.12,937.28 V 912 h 4.32 4.32 v 2.58488 2.58487 l 1.0507,-1.38487 c 2.2291,-2.93831 5.5933,-4.42488 10.0137,-4.42488 6.0832,0 10.4868,2.80207 13.348,8.49367 1.6247,3.232 1.9791,5.05914 1.9835,10.22633 0,4.42322 -0.068,5.0192 -0.9112,7.59246 -1.7716,5.40466 -5.2507,9.12629 -9.8327,10.51802 -1.8294,0.55565 -2.824,0.65731 -5.3496,0.54683 -4.0341,-0.17648 -6.0176,-1.07158 -8.5322,-3.85027 l -1.7702,-1.9561 v 9.81453 9.81453 h -4.32 -4.32 z m 21.3777,3.65113 c 1.9925,-0.99291 3.349,-2.55072 4.294,-4.93113 0.9488,-2.39009 1.034,-8.88366 0.1499,-11.41817 -1.3734,-3.93677 -4.358,-6.18444 -8.2044,-6.1787 -3.7644,0.006 -6.4929,1.85889 -8.2398,5.59687 -0.8387,1.79439 -0.8974,2.19215 -0.8974,6.08 0,3.88785 0.059,4.28561 0.8974,6.08 0.4935,1.056 1.3575,2.40563 1.92,2.99919 2.4961,2.63406 6.8237,3.39477 10.0803,1.77194 z m -730.0654,7.73602 c -6.3988,-1.21738 -11.3557,-6.01667 -13.1243,-12.70694 -0.6652,-2.51666 -0.7426,-8.36109 -0.1434,-10.84021 1.7489,-7.23644 7.3616,-12.52404 14.3177,-13.4883 6.2266,-0.86314 12.5998,1.55395 15.8801,6.0226 2.5778,3.51163 3.6603,6.69775 3.977,11.7057 l 0.1973,3.12 h -13.2129 -13.2129 l 0.1894,1.59968 c 0.3743,3.16027 2.3099,6.13813 4.8294,7.42976 1.6558,0.84884 5.3787,1.13378 7.4042,0.56667 1.9367,-0.54225 3.7905,-1.92725 4.6917,-3.50522 l 0.7344,-1.28596 3.9547,-0.002 3.9547,-0.002 -0.2095,0.88 c -1.0381,4.36003 -5.5174,8.60214 -10.6858,10.11994 -2.4727,0.72613 -6.8308,0.90298 -9.5418,0.38721 z M 1164.9614,925.36 c -0.645,-3.20303 -2.8177,-5.85652 -5.5605,-6.79107 -3.0081,-1.02498 -6.8162,-0.41821 -9.0785,1.44653 -1.1949,0.98498 -2.5938,3.5076 -2.9638,5.34454 l -0.2094,1.04 h 9.0108 9.0109 z m 90.5586,23.58046 c -0.352,-0.0807 -1.432,-0.30442 -2.4,-0.49712 -5.6528,-1.12531 -10.6413,-6.16138 -12.3512,-12.46893 -0.7509,-2.77023 -0.7628,-8.6603 -0.023,-11.49441 1.6769,-6.4261 6.1613,-11.04992 12.2564,-12.63748 2.3685,-0.61692 7.136,-0.61994 9.493,-0.006 5.8692,1.52874 10.6225,6.33897 11.3079,11.44349 l 0.2041,1.52 h -4.1679 -4.1679 l -0.1992,-1.06184 c -0.544,-2.89976 -3.8957,-5.33816 -7.3377,-5.33816 -2.604,0 -4.1621,0.53257 -5.8152,1.98771 -2.8098,2.47321 -4.1764,7.39166 -3.4148,12.28997 0.94,6.04633 4.0658,9.21668 9.0587,9.18761 3.6735,-0.0214 6.3753,-1.95578 7.3703,-5.27693 l 0.368,-1.22836 h 4.2281 4.228 l -0.2583,1.38254 c -1.0448,5.59264 -5.0107,9.81305 -10.849,11.54528 -1.7702,0.52523 -6.3534,0.92246 -7.5301,0.65264 z m 114.5123,-0.27331 c -6.3988,-1.21738 -11.3557,-6.01667 -13.1243,-12.70694 -0.6652,-2.51666 -0.7426,-8.36109 -0.1434,-10.84021 1.7489,-7.23644 7.3616,-12.52404 14.3177,-13.4883 6.2266,-0.86314 12.5998,1.55395 15.8801,6.0226 2.5778,3.51163 3.6603,6.69775 3.977,11.7057 l 0.1973,3.12 h -13.2129 -13.2129 l 0.1894,1.59968 c 0.3743,3.16027 2.3099,6.13813 4.8294,7.42976 1.6558,0.84884 5.3787,1.13378 7.4042,0.56667 1.9367,-0.54225 3.7905,-1.92725 4.6917,-3.50522 l 0.7344,-1.28596 3.9547,-0.002 3.9547,-0.002 -0.2095,0.88 c -1.0381,4.36003 -5.5174,8.60214 -10.6858,10.11994 -2.4727,0.72613 -6.8308,0.90298 -9.5418,0.38721 z M 1382.5614,925.36 c -0.645,-3.20303 -2.8177,-5.85652 -5.5605,-6.79107 -3.0081,-1.02498 -6.8162,-0.41821 -9.0785,1.44653 -1.1949,0.98498 -2.5938,3.5076 -2.9638,5.34454 l -0.2094,1.04 h 9.0108 9.0109 z m 304.9096,23.43086 c -6.791,-1.22182 -11.8876,-5.97511 -13.7422,-12.81645 -0.7536,-2.78039 -0.7637,-8.67067 -0.019,-11.47129 1.7074,-6.42563 6.2106,-11.08685 12.2239,-12.65314 1.0557,-0.27496 3.2264,-0.48998 4.9467,-0.48998 5.3312,0 9.2418,1.53235 12.64,4.95285 3.4923,3.51517 5.0802,7.87494 5.0727,13.92715 -0.01,6.1319 -1.5012,10.0947 -5.1977,13.79121 -3.2474,3.24743 -6.5943,4.67263 -11.555,4.92046 -1.496,0.0747 -3.4621,0.002 -4.369,-0.16081 z m 6.929,-7.5654 c 1.5901,-0.64705 3.6895,-2.81887 4.4631,-4.61694 1.5703,-3.65042 1.6017,-9.23478 0.072,-12.80146 -1.4782,-3.44626 -4.3933,-5.40081 -8.0549,-5.40081 -3.6616,0 -6.5766,1.95455 -8.0549,5.40081 -1.5284,3.56338 -1.4964,9.23546 0.072,12.79031 0.726,1.64542 2.5397,3.68203 3.9271,4.40987 2.0659,1.08383 5.2247,1.17482 7.5755,0.21822 z m 256.48,7.715 c -0.352,-0.0807 -1.432,-0.30442 -2.4,-0.49712 -5.6528,-1.12531 -10.6413,-6.16138 -12.3511,-12.46893 -0.751,-2.77023 -0.7629,-8.6603 -0.023,-11.49441 1.6769,-6.4261 6.1613,-11.04992 12.2564,-12.63748 2.3685,-0.61692 7.136,-0.61994 9.493,-0.006 5.8692,1.52874 10.6225,6.33897 11.3079,11.44349 l 0.2041,1.52 h -4.1679 -4.1678 l -0.1992,-1.06184 c -0.544,-2.89976 -3.8958,-5.33816 -7.3378,-5.33816 -2.604,0 -4.1621,0.53257 -5.8152,1.98771 -2.8098,2.47321 -4.1764,7.39166 -3.4148,12.28997 0.94,6.04633 4.0658,9.21668 9.0587,9.18761 3.6735,-0.0214 6.3753,-1.95578 7.3703,-5.27693 l 0.368,-1.22836 h 4.2281 4.228 l -0.2583,1.38254 c -1.0448,5.59264 -5.0107,9.81305 -10.849,11.54528 -1.7702,0.52523 -6.3534,0.92246 -7.5301,0.65264 z m 116.751,-0.1496 c -6.791,-1.22182 -11.8876,-5.97511 -13.7421,-12.81645 -0.7537,-2.78039 -0.7637,-8.67067 -0.019,-11.47129 1.7074,-6.42563 6.2106,-11.08685 12.2239,-12.65314 1.0557,-0.27496 3.2264,-0.48998 4.9467,-0.48998 5.3312,0 9.2418,1.53235 12.64,4.95285 3.4923,3.51517 5.0802,7.87494 5.0727,13.92715 -0.01,6.1319 -1.5012,10.0947 -5.1977,13.79121 -3.2474,3.24743 -6.5943,4.67263 -11.555,4.92046 -1.496,0.0747 -3.462,0.002 -4.369,-0.16081 z m 6.929,-7.5654 c 1.5901,-0.64705 3.6896,-2.81887 4.4631,-4.61694 1.5703,-3.65042 1.6017,-9.23478 0.072,-12.80146 -1.4782,-3.44626 -4.3933,-5.40081 -8.0549,-5.40081 -3.6616,0 -6.5766,1.95455 -8.0548,5.40081 -1.5285,3.56338 -1.4965,9.23546 0.072,12.79031 0.726,1.64542 2.5397,3.68203 3.9271,4.40987 2.066,1.08383 5.2247,1.17482 7.5755,0.21822 z m -1066.1588,7.09637 c -6.4192,-1.16381 -11.20486,-5.60314 -12.24227,-11.35624 -1.00763,-5.58796 1.06462,-9.50536 7.96677,-15.06047 l 1.4057,-1.13136 -1.3364,-1.74688 c -3.2232,-4.21296 -4.60874,-8.58172 -3.9153,-12.34507 1.0341,-5.6122 4.9472,-9.22012 10.9695,-10.11396 9.2142,-1.36758 16.6431,5.28076 14.9855,13.41088 -0.7792,3.82217 -3.7015,7.60528 -8.2352,10.66127 -0.9139,0.616 -1.6296,1.21754 -1.5906,1.33675 0.1326,0.40415 9.0101,10.82325 9.2219,10.82325 0.6517,0 2.2092,-5.31285 2.2092,-7.53575 V 924.16 h 3.84 c 4.4072,0 4.0333,-0.40443 3.5069,3.79337 -0.4315,3.44148 -1.5954,7.08704 -3.0155,9.4454 -0.6223,1.03332 -1.1314,1.90356 -1.1314,1.93386 0,0.0303 1.6456,1.99285 3.6569,4.36123 l 3.6569,4.30614 -4.6587,0.0888 -4.6586,0.0888 -1.1583,-1.35265 c -0.637,-0.74396 -1.378,-1.62385 -1.6466,-1.95532 -0.4717,-0.58208 -0.5454,-0.56434 -2.1555,0.51917 -2.0993,1.41275 -4.6794,2.3952 -7.7561,2.95343 -2.9376,0.533 -4.8943,0.52796 -7.9188,-0.0204 z m 9.599,-7.92285 c 1.1881,-0.53566 2.3045,-1.1477 2.4807,-1.36009 0.2315,-0.27885 -1.1557,-2.08747 -4.9909,-6.50736 -4.2964,-4.95146 -5.4125,-6.06684 -5.8407,-5.83681 -1.1955,0.64228 -3.9573,3.62602 -4.5355,4.89995 -1.1222,2.47225 -0.6565,4.98064 1.3232,7.1284 2.8687,3.11214 7.0374,3.71633 11.5632,1.67591 z m -3.6034,-25.61362 c 3.0395,-2.15213 4.2261,-3.78718 4.3938,-6.05414 0.1946,-2.63192 -1.2283,-4.44626 -3.9723,-5.06513 -1.4487,-0.32675 -3.8228,0.1396 -4.7932,0.94154 -2.0387,1.68489 -2.5924,4.67081 -1.367,7.37199 0.6303,1.38948 2.8212,4.50038 3.1694,4.50038 0.097,0 1.2529,-0.76259 2.5693,-1.69464 z M 1211.2,948.46043 c -2.5884,-0.45015 -5.5451,-2.01054 -6.8674,-3.62417 -2.8157,-3.43615 -3.1332,-9.04038 -0.7105,-12.54154 2.1142,-3.0554 5.5843,-4.38059 14.5171,-5.54396 2.6726,-0.34806 5.2985,-0.85999 5.8354,-1.13762 2.5733,-1.33073 1.0827,-5.74979 -2.3864,-7.07465 -1.9109,-0.7298 -5.5438,-0.50848 -7.4173,0.45187 -1.3927,0.71391 -2.9709,2.64956 -2.9709,3.64392 0,0.51112 -0.3903,0.56572 -4.0446,0.56572 h -4.0445 l 0.1865,-1.57506 c 0.5319,-4.49111 4.4737,-8.24195 10.1426,-9.65123 2.5675,-0.63827 8.6569,-0.55332 11.0264,0.15382 5.3659,1.60138 8.2481,4.4831 9.1289,9.12733 0.1851,0.97649 0.3247,7.12622 0.3247,14.30882 V 948.16 h -4.32 -4.32 l -0.017,-2.64 c -0.016,-2.56629 -0.032,-2.61766 -0.5452,-1.84 -1.1472,1.73656 -3.2625,3.46821 -5.0567,4.13951 -2.1399,0.80065 -5.9036,1.08574 -8.4613,0.64092 z m 9.8849,-6.99252 c 2.9711,-1.53687 4.1951,-3.95288 4.1951,-8.28023 0,-2.13636 -0.056,-2.35319 -0.56,-2.14859 -1.2443,0.50566 -2.5167,0.79217 -5.78,1.3015 -4.3699,0.68207 -6.4769,1.46974 -7.7207,2.88631 -1.8478,2.10456 -1.0366,5.29803 1.6673,6.56392 1.9001,0.88953 6.1804,0.72094 8.1983,-0.32291 z m 249.9551,6.99252 c -2.5884,-0.45015 -5.5451,-2.01054 -6.8674,-3.62417 -2.8157,-3.43615 -3.1331,-9.04038 -0.7105,-12.54154 2.1142,-3.0554 5.5843,-4.38059 14.5171,-5.54396 2.6726,-0.34806 5.2985,-0.85999 5.8354,-1.13762 2.5734,-1.33073 1.0827,-5.74979 -2.3864,-7.07465 -1.9109,-0.7298 -5.5437,-0.50848 -7.4173,0.45187 -1.3927,0.71391 -2.9709,2.64956 -2.9709,3.64392 0,0.51112 -0.3903,0.56572 -4.0446,0.56572 h -4.0445 l 0.1865,-1.57506 c 0.5319,-4.49111 4.4737,-8.24195 10.1426,-9.65123 2.5675,-0.63827 8.6569,-0.55332 11.0264,0.15382 5.3659,1.60138 8.2481,4.4831 9.1289,9.12733 0.1851,0.97649 0.3247,7.12622 0.3247,14.30882 V 948.16 h -4.32 -4.32 l -0.017,-2.64 c -0.016,-2.56629 -0.032,-2.61766 -0.5452,-1.84 -1.1471,1.73656 -3.2625,3.46821 -5.0567,4.13951 -2.1399,0.80065 -5.9036,1.08574 -8.4613,0.64092 z m 9.8849,-6.99252 c 2.9711,-1.53687 4.1951,-3.95288 4.1951,-8.28023 0,-2.13636 -0.056,-2.35319 -0.56,-2.14859 -1.2443,0.50566 -2.5167,0.79217 -5.78,1.3015 -4.3699,0.68207 -6.4769,1.46974 -7.7207,2.88631 -1.8478,2.10456 -1.0366,5.29803 1.6673,6.56392 1.9001,0.88953 6.1804,0.72094 8.1983,-0.32291 z m 122.2751,6.99252 c -2.5884,-0.45015 -5.5451,-2.01054 -6.8674,-3.62417 -2.8157,-3.43615 -3.1331,-9.04038 -0.7105,-12.54154 2.1142,-3.0554 5.5843,-4.38059 14.5171,-5.54396 2.6726,-0.34806 5.2985,-0.85999 5.8354,-1.13762 2.5734,-1.33073 1.0827,-5.74979 -2.3864,-7.07465 -1.9109,-0.7298 -5.5437,-0.50848 -7.4173,0.45187 -1.3927,0.71391 -2.9709,2.64956 -2.9709,3.64392 0,0.51112 -0.3903,0.56572 -4.0445,0.56572 h -4.0446 l 0.1865,-1.57506 c 0.5319,-4.49111 4.4737,-8.24195 10.1426,-9.65123 2.5675,-0.63827 8.6569,-0.55332 11.0264,0.15382 5.3659,1.60138 8.2481,4.4831 9.1289,9.12733 0.1851,0.97649 0.3247,7.12622 0.3247,14.30882 V 948.16 h -4.32 -4.32 l -0.017,-2.64 c -0.016,-2.56629 -0.032,-2.61766 -0.5452,-1.84 -1.1471,1.73656 -3.2625,3.46821 -5.0567,4.13951 -2.1399,0.80065 -5.9036,1.08574 -8.4613,0.64092 z m 9.8849,-6.99252 c 2.9711,-1.53687 4.1951,-3.95288 4.1951,-8.28023 0,-2.13636 -0.056,-2.35319 -0.56,-2.14859 -1.2443,0.50566 -2.5167,0.79217 -5.78,1.3015 -4.3699,0.68207 -6.4769,1.46974 -7.7207,2.88631 -1.8478,2.10456 -1.0366,5.29803 1.6673,6.56392 1.9001,0.88953 6.1804,0.72094 8.1983,-0.32291 z m 370.2751,6.99252 c -2.5884,-0.45015 -5.5451,-2.01054 -6.8674,-3.62417 -2.8156,-3.43615 -3.1331,-9.04038 -0.7105,-12.54154 2.1142,-3.0554 5.5843,-4.38059 14.5172,-5.54396 2.6725,-0.34806 5.2984,-0.85999 5.8353,-1.13762 2.5734,-1.33073 1.0827,-5.74979 -2.3864,-7.07465 -1.9109,-0.7298 -5.5437,-0.50848 -7.4173,0.45187 -1.3927,0.71391 -2.9709,2.64956 -2.9709,3.64392 0,0.51112 -0.3903,0.56572 -4.0445,0.56572 h -4.0446 l 0.1865,-1.57506 c 0.5319,-4.49111 4.4737,-8.24195 10.1426,-9.65123 2.5675,-0.63827 8.6569,-0.55332 11.0264,0.15382 5.3659,1.60138 8.2481,4.4831 9.1289,9.12733 0.1851,0.97649 0.3247,7.12622 0.3247,14.30882 V 948.16 h -4.32 -4.32 l -0.017,-2.64 c -0.016,-2.56629 -0.032,-2.61766 -0.5452,-1.84 -1.1471,1.73656 -3.2625,3.46821 -5.0567,4.13951 -2.1399,0.80065 -5.9036,1.08574 -8.4613,0.64092 z m 9.8849,-6.99252 c 2.9711,-1.53687 4.1951,-3.95288 4.1951,-8.28023 0,-2.13636 -0.057,-2.35319 -0.56,-2.14859 -1.2443,0.50566 -2.5167,0.79217 -5.78,1.3015 -4.3699,0.68207 -6.4769,1.46974 -7.7207,2.88631 -1.8478,2.10456 -1.0366,5.29803 1.6673,6.56392 1.9001,0.88953 6.1804,0.72094 8.1983,-0.32291 z M 1058.56,922.56 v -25.6 h 4.48 4.48 v 25.6 25.6 h -4.48 -4.48 z m 68.2324,25.24413 c -2.2327,-0.37183 -4.6417,-1.62437 -5.639,-2.93194 -1.5846,-2.07756 -1.7934,-3.88157 -1.7934,-15.49942 V 918.72 h -3.2 -3.2 v -3.52 -3.52 h 3.2 3.2 v -4.8 -4.8 h 4.32 4.32 v 4.8 4.8 h 3.68 3.68 v 3.52 3.52 h -3.68 -3.68 v 9.87225 c 0,6.06826 0.1295,10.24356 0.3359,10.83589 0.4558,1.30738 1.4737,1.69186 4.4792,1.69186 h 2.5449 v 3.52 3.52 l -3.44,-0.0374 c -1.892,-0.0206 -4.1994,-0.16388 -5.1276,-0.31846 z M 1179.2,930.08 V 912 h 4.148 4.148 l 0.092,2.94076 0.092,2.94077 0.9672,-1.90077 c 1.579,-3.103 4.5248,-4.62076 8.9686,-4.62076 h 1.7442 l 7e-4,3.92 8e-4,3.92 -2.9608,-0.0982 c -2.614,-0.0867 -3.1293,-0.009 -4.4007,0.66437 -1.8619,0.98596 -3.3692,2.97784 -3.8105,5.03577 -0.2138,0.99675 -0.3495,5.84829 -0.3495,12.49376 V 948.16 h -4.32 -4.32 z m 111.4324,17.72413 c -2.2327,-0.37183 -4.6417,-1.62437 -5.639,-2.93194 -1.5846,-2.07756 -1.7934,-3.88157 -1.7934,-15.49942 V 918.72 h -3.2 -3.2 v -3.52 -3.52 h 3.2 3.2 v -4.8 -4.8 h 4.32 4.32 v 4.8 4.8 h 3.68 3.68 v 3.52 3.52 h -3.68 -3.68 v 9.87225 c 0,6.06826 0.1295,10.24356 0.3359,10.83589 0.4558,1.30738 1.4737,1.69186 4.4792,1.69186 h 2.5449 v 3.52 3.52 l -3.44,-0.0374 c -1.892,-0.0206 -4.1994,-0.16388 -5.1276,-0.31846 z M 1304.64,930.08 V 912 h 4.32 4.32 v 18.08 18.08 h -4.32 -4.32 z m 26.5227,17.20858 c -1.7362,-4.43298 -13.0827,-34.79725 -13.0827,-35.01056 0,-0.15291 1.986,-0.27802 4.4133,-0.27802 h 4.4132 l 1.3873,3.92 c 0.763,2.156 2.8747,8.30424 4.6927,13.66276 1.818,5.35852 3.3817,9.53452 3.4748,9.28 0.093,-0.25452 0.6043,-1.90276 1.1358,-3.66276 0.5316,-1.76 2.5137,-7.69874 4.4047,-13.19719 l 3.4382,-9.99719 4.4216,-0.003 c 4.3641,-0.003 4.4187,0.006 4.2056,0.67763 -0.1188,0.37424 -3.1387,8.47424 -6.7109,18 L 1340.8614,948 l -4.6753,0.0886 -4.6754,0.0886 z M 1413.12,922.56 v -25.6 l 4.88,0.006 4.88,0.006 9.8139,15.75405 c 5.3977,8.66473 10.6537,17.26169 11.68,19.10435 l 1.8661,3.3503 0.082,-19.1103 0.083,-19.11029 h 4.3174 4.3175 v 25.6 25.6 h -4.7206 -4.7205 l -8.3494,-13.2 c -4.5922,-7.26 -9.8479,-15.75214 -11.6795,-18.87142 -1.8315,-3.11927 -3.402,-5.67531 -3.49,-5.68007 -0.088,-0.005 -0.1206,8.48737 -0.072,18.87141 l 0.087,18.88008 h -4.4874 -4.4875 z m 96.9227,24.72858 c -1.7362,-4.43298 -13.0827,-34.79725 -13.0827,-35.01056 0,-0.15291 1.986,-0.27802 4.4133,-0.27802 h 4.4132 l 1.3873,3.92 c 0.763,2.156 2.8747,8.30424 4.6927,13.66276 1.818,5.35852 3.3817,9.53452 3.4748,9.28 0.093,-0.25452 0.6043,-1.90276 1.1358,-3.66276 0.5316,-1.76 2.5137,-7.69874 4.4047,-13.19719 l 3.4382,-9.99719 4.4216,-0.003 c 4.3641,-0.003 4.4187,0.006 4.2056,0.67763 -0.1188,0.37424 -3.1387,8.47424 -6.7109,18 L 1519.7414,948 l -4.6753,0.0886 -4.6754,0.0886 z M 1537.92,930.08 V 912 h 4.32 4.32 v 18.08 18.08 h -4.32 -4.32 z m 106.3124,17.72413 c -2.2327,-0.37183 -4.6417,-1.62437 -5.639,-2.93194 -1.5846,-2.07756 -1.7934,-3.88157 -1.7934,-15.49942 V 918.72 h -3.2 -3.2 v -3.52 -3.52 h 3.2 3.2 v -4.8 -4.8 h 4.32 4.32 v 4.8 4.8 h 3.68 3.68 v 3.52 3.52 h -3.68 -3.68 v 9.87225 c 0,6.06826 0.1295,10.24356 0.336,10.83589 0.4557,1.30738 1.4736,1.69186 4.4791,1.69186 h 2.5449 v 3.52 3.52 l -3.44,-0.0374 c -1.892,-0.0206 -4.1994,-0.16388 -5.1276,-0.31846 z M 1658.24,930.08 V 912 h 4.32 4.32 v 18.08 18.08 h -4.32 -4.32 z m 118.3601,-7.51115 9.1599,-25.60739 5.6344,-7.3e-4 5.6343,-7.3e-4 6.179,17.36 c 3.3984,9.548 7.505,21.07157 9.1257,25.60792 l 2.9468,8.24793 -4.9737,-0.0879 -4.9737,-0.0879 -1.973,-5.92 -1.973,-5.92 -10.0856,-0.0844 -10.0855,-0.0844 -2.0478,6.00443 -2.0479,6.00443 -4.8399,0.0881 -4.8399,0.0881 z m 22.1199,5.83153 c 0,-0.13179 -0.6463,-2.18379 -1.4363,-4.56 -0.7899,-2.37621 -2.4349,-7.56038 -3.6554,-11.52038 -1.2206,-3.96 -2.2939,-6.984 -2.3853,-6.72 -0.091,0.264 -1.193,3.77912 -2.448,7.81138 -1.2551,4.03226 -2.9086,9.10826 -3.6745,11.28 l -1.3926,3.94862 h 7.4961 c 4.1228,0 7.496,-0.10783 7.496,-0.23962 z m 110.7329,19.39519 c -0.9609,-0.15929 -2.4729,-0.69793 -3.36,-1.19698 -1.2886,-0.72496 -1.8059,-1.28177 -2.5729,-2.76991 l -0.96,-1.86255 -0.092,-22.50306 -0.092,-22.50307 h 4.3256 4.3257 l 0.087,21.62838 0.087,21.62837 0.7555,0.61163 c 0.4873,0.39452 1.254,0.61162 2.16,0.61162 h 1.4045 v 3.36 3.36 l -2.16,-0.0374 c -1.188,-0.0206 -2.9462,-0.16774 -3.9071,-0.32702 z M 1920.64,930.08 V 912 h 4.32 4.32 v 18.08 18.08 h -4.32 -4.32 z m 103.7524,17.72413 c -2.2327,-0.37183 -4.6417,-1.62437 -5.639,-2.93194 -1.5846,-2.07756 -1.7934,-3.88157 -1.7934,-15.49942 V 918.72 h -3.2 -3.2 v -3.52 -3.52 h 3.2 3.2 v -4.8 -4.8 h 4.32 4.32 v 4.8 4.8 h 3.68 3.68 v 3.52 3.52 h -3.68 -3.68 v 9.87225 c 0,6.06826 0.1295,10.24356 0.336,10.83589 0.4557,1.30738 1.4736,1.69186 4.4791,1.69186 h 2.5449 v 3.52 3.52 l -3.44,-0.0374 c -1.892,-0.0206 -4.1994,-0.16388 -5.1276,-0.31846 z M 2038.4,930.08 V 912 h 4.32 4.32 v 18.08 18.08 h -4.32 -4.32 z m -962.56,-0.32 v -18.08 h 4.32 4.32 l 0.01,2.8 0.01,2.8 0.696,-0.96 c 2.0026,-2.76216 4.6248,-4.38114 8.0666,-4.98051 6.5997,-1.14929 12.27,2.14596 14.3306,8.32813 0.6618,1.98549 0.7034,2.75855 0.8143,15.13238 l 0.1169,13.04 h -4.3245 -4.3245 l -0.098,-11.92 c -0.088,-10.66803 -0.1585,-12.05444 -0.6749,-13.2 -1.3156,-2.91868 -3.5699,-4.15433 -7.2044,-3.94896 -3.0983,0.17507 -4.9674,1.34396 -6.2937,3.93602 l -0.9649,1.88574 -0.098,11.6236 -0.098,11.6236 h -4.3017 -4.3018 z m 638.72,0 v -18.08 h 4.32 4.32 l 0.01,2.8 0.01,2.8 0.696,-0.96 c 2.0027,-2.76216 4.6248,-4.38114 8.0667,-4.98051 6.5997,-1.14929 12.2699,2.14596 14.3305,8.32813 0.6618,1.98549 0.7034,2.75855 0.8143,15.13238 l 0.1169,13.04 h -4.3245 -4.3245 l -0.098,-11.92 c -0.088,-10.66803 -0.1585,-12.05444 -0.6748,-13.2 -1.3157,-2.91868 -3.57,-4.15433 -7.2045,-3.94896 -3.0983,0.17507 -4.9674,1.34396 -6.2937,3.93602 l -0.9649,1.88574 -0.098,11.6236 -0.098,11.6236 h -4.3017 -4.3018 z m 380.16,0 v -18.08 h 4.32 4.32 l 0.01,2.8 0.01,2.8 0.696,-0.96 c 2.0027,-2.76216 4.6248,-4.38114 8.0667,-4.98051 6.5997,-1.14929 12.2699,2.14596 14.3305,8.32813 0.6618,1.98549 0.7034,2.75855 0.8143,15.13238 l 0.1169,13.04 h -4.3245 -4.3245 l -0.098,-11.92 c -0.088,-10.66803 -0.1585,-12.05444 -0.6748,-13.2 -1.3157,-2.91868 -3.57,-4.15433 -7.2045,-3.94896 -3.0983,0.17507 -4.9674,1.34396 -6.2937,3.93602 l -0.9649,1.88574 -0.098,11.6236 -0.098,11.6236 h -4.3017 -4.3018 z m -787.6466,-23.5323 c -3.2073,-0.95979 -4.3243,-5.26066 -2.0415,-7.86066 2.4981,-2.84515 7.6125,-1.75578 8.5773,1.82693 1.0709,3.97702 -2.4737,7.24931 -6.5358,6.03373 z m 233.28,0 c -3.2073,-0.95979 -4.3243,-5.26066 -2.0415,-7.86066 2.4981,-2.84515 7.6125,-1.75578 8.5773,1.82693 1.0709,3.97702 -2.4737,7.24931 -6.5358,6.03373 z m 120.32,0 c -3.2073,-0.95979 -4.3243,-5.26066 -2.0415,-7.86066 2.4981,-2.84515 7.6125,-1.75578 8.5773,1.82693 1.0709,3.97702 -2.4737,7.24931 -6.5358,6.03373 z m 262.4,0 c -3.2073,-0.95979 -4.3243,-5.26066 -2.0415,-7.86066 2.4981,-2.84515 7.6126,-1.75578 8.5773,1.82693 1.0709,3.97702 -2.4737,7.24931 -6.5358,6.03373 z m 117.76,0 c -3.2073,-0.95979 -4.3243,-5.26066 -2.0415,-7.86066 2.4981,-2.84515 7.6126,-1.75578 8.5773,1.82693 1.0709,3.97702 -2.4737,7.24931 -6.5358,6.03373 z m -687.6983,-35.52185 c -6.4215,-1.0081 -11.0849,-4.77515 -12.1638,-9.82585 l -0.2221,-1.04 h 4.1318 4.1318 l 0.7736,1.18972 c 1.5819,2.43268 4.1099,3.44471 8.0414,3.21913 2.0245,-0.11616 2.7418,-0.31107 3.9939,-1.08518 2.9058,-1.79649 3.6145,-3.60847 3.6153,-9.24367 l 6e-4,-3.84 -0.6102,1.00078 c -1.0284,1.68654 -2.9236,3.36107 -4.7997,4.24088 -1.6189,0.75919 -2.1518,0.83834 -5.6443,0.83834 -3.8043,0 -3.8891,-0.0161 -6.2594,-1.18753 -6.0049,-2.96781 -9.063,-8.79246 -9.0368,-17.21247 0.026,-8.3997 3.1076,-14.2821 9.0099,-17.19918 2.4016,-1.18693 2.4743,-1.20082 6.2863,-1.20082 3.5585,0 3.995,0.068 5.6465,0.87903 1.9251,0.94541 3.8317,2.61641 4.8033,4.20976 l 0.6044,0.99121 v -2.8 -2.8 h 4.32 4.32 v 18.82123 c 0,12.24673 -0.1222,19.48449 -0.3498,20.72 -1.0119,5.49178 -4.8026,9.34004 -10.6902,10.85251 -2.4281,0.62377 -7.4224,0.86181 -9.9049,0.47211 z m 6.3004,-21.80627 c 1.7327,-0.51914 4.2012,-2.82031 5.1872,-4.83562 1.0429,-2.1316 1.4868,-5.59185 1.1062,-8.62309 -0.1632,-1.29937 -0.6495,-3.05156 -1.1062,-3.98483 -1.047,-2.14 -3.4998,-4.35768 -5.4119,-4.89303 -1.7735,-0.49653 -5.0991,-0.28404 -6.4447,0.41179 -3.4917,1.80563 -5.5437,6.66546 -5.1317,12.15347 0.3711,4.94146 2.8043,8.81343 6.1731,9.82321 1.3561,0.40648 4.1851,0.38039 5.628,-0.0519 z m 588.2596,21.80627 c -6.4215,-1.0081 -11.0849,-4.77515 -12.1638,-9.82585 l -0.2221,-1.04 h 4.1318 4.1318 l 0.7736,1.18972 c 1.5819,2.43268 4.1099,3.44471 8.0414,3.21913 2.0245,-0.11616 2.7418,-0.31107 3.9939,-1.08518 2.9058,-1.79649 3.6145,-3.60847 3.6153,-9.24367 l 6e-4,-3.84 -0.6102,1.00078 c -1.0284,1.68654 -2.9236,3.36107 -4.7997,4.24088 -1.6189,0.75919 -2.1518,0.83834 -5.6443,0.83834 -3.8043,0 -3.8891,-0.0161 -6.2594,-1.18753 -6.0049,-2.96781 -9.063,-8.79246 -9.0368,-17.21247 0.026,-8.3997 3.1076,-14.2821 9.0099,-17.19918 2.4016,-1.18693 2.4743,-1.20082 6.2863,-1.20082 3.5585,0 3.995,0.068 5.6465,0.87903 1.9251,0.94541 3.8317,2.61641 4.8033,4.20976 l 0.6044,0.99121 v -2.8 -2.8 h 4.32 4.32 v 18.82123 c 0,12.24673 -0.1222,19.48449 -0.3498,20.72 -1.0119,5.49178 -4.8026,9.34004 -10.6902,10.85251 -2.4281,0.62377 -7.4224,0.86181 -9.9049,0.47211 z m 6.3004,-21.80627 c 1.7327,-0.51914 4.2013,-2.82031 5.1873,-4.83562 1.0428,-2.1316 1.4867,-5.59185 1.1061,-8.62309 -0.1631,-1.29937 -0.6495,-3.05156 -1.1061,-3.98483 -1.0471,-2.14 -3.4999,-4.35768 -5.412,-4.89303 -1.7735,-0.49653 -5.0991,-0.28404 -6.4447,0.41179 -3.4917,1.80563 -5.5437,6.66546 -5.1317,12.15347 0.3711,4.94146 2.8043,8.81343 6.1731,9.82321 1.3561,0.40648 4.1852,0.38039 5.628,-0.0519 z M 1669.76,866.11801 c 0,-0.2563 0.576,-4.28767 1.28,-8.9586 0.704,-4.67093 1.28,-8.57064 1.28,-8.66601 0,-0.0954 1.8835,-0.1734 4.1855,-0.1734 h 4.1854 l -0.2013,0.88 c -0.1107,0.484 -1.2406,4.552 -2.5109,9.04 l -2.3096,8.16 -2.9545,0.092 c -2.4156,0.0752 -2.9546,0.007 -2.9546,-0.374 z m -511.4016,-9.18073 c -4.1844,-0.61474 -8.1001,-2.69828 -10.0056,-5.32402 -1.0847,-1.49462 -1.5556,-2.68489 -1.9678,-4.97326 l -0.2162,-1.2 h 4.1521 4.1522 l 0.5442,1.42509 c 0.6493,1.70003 2.2688,3.21325 3.934,3.67567 3.5055,0.9735 8.1237,-0.12248 9.1879,-2.1805 0.7668,-1.48284 0.6449,-3.12526 -0.3022,-4.07241 -1.1628,-1.16275 -2.4571,-1.61428 -7.7504,-2.70373 -9.5053,-1.95637 -13.0083,-4.87945 -13.0195,-10.86412 -0.01,-4.1318 2.026,-7.33072 5.8929,-9.26942 2.596,-1.30153 4.8793,-1.76401 8.64,-1.75004 8.2212,0.0305 13.3975,3.74397 14.5799,10.45946 l 0.2113,1.2 h -4.0356 c -3.8548,0 -4.0356,-0.0294 -4.0356,-0.65589 0,-2.47164 -3.1093,-4.78411 -6.4326,-4.78411 -2.3419,0 -3.9246,0.56033 -5.1481,1.82265 -0.8714,0.89903 -1.0593,1.34146 -1.0593,2.49411 0,1.11828 0.1922,1.60186 0.952,2.39489 1.0715,1.11834 2.8123,1.70091 9.119,3.05161 6.2995,1.34915 9.2083,3.00195 10.7493,6.10765 0.4745,0.95648 0.6197,1.92375 0.6197,4.12909 0,2.58809 -0.095,3.05202 -0.9402,4.57714 -0.5171,0.93342 -1.5073,2.20952 -2.2005,2.83577 -3.356,3.03194 -9.6429,4.4826 -15.6209,3.60437 z m 37.2739,-0.11013 c -6.3988,-1.21738 -11.3557,-6.01667 -13.1243,-12.70694 -0.6652,-2.51666 -0.7426,-8.36109 -0.1434,-10.84021 1.7489,-7.23644 7.3616,-12.52404 14.3177,-13.4883 6.2266,-0.86314 12.5998,1.55395 15.8801,6.0226 2.5778,3.51163 3.6603,6.69775 3.977,11.7057 l 0.1973,3.12 h -13.2129 -13.2129 l 0.1894,1.59968 c 0.3743,3.16027 2.3099,6.13813 4.8294,7.42976 1.6558,0.84884 5.3787,1.13378 7.4042,0.56667 1.9367,-0.54225 3.7905,-1.92725 4.6917,-3.50522 l 0.7344,-1.28596 3.9547,-0.002 3.9547,-0.002 -0.2095,0.88 c -1.0381,4.36003 -5.5174,8.60214 -10.6858,10.11994 -2.4727,0.72613 -6.8308,0.90298 -9.5418,0.38721 z M 1208.1614,833.52 c -0.645,-3.20303 -2.8177,-5.85652 -5.5605,-6.79107 -3.0081,-1.02498 -6.8162,-0.41821 -9.0785,1.44653 -1.1949,0.98498 -2.5938,3.5076 -2.9638,5.34454 l -0.2094,1.04 h 9.0108 9.0109 z m 73.9111,23.46532 c -9.8413,-1.57799 -16.9077,-8.30282 -19.4026,-18.46468 -0.9968,-4.06024 -0.9937,-11.22861 0.01,-15.32064 1.3815,-5.651 4.7171,-11.01512 8.6826,-13.96302 4.3125,-3.20578 8.5412,-4.55974 14.2408,-4.55974 5.9872,0 10.7158,1.63238 14.9603,5.16451 6.3517,5.28572 9.6656,14.66483 8.6034,24.34971 -0.475,4.33067 -1.0741,6.60515 -2.5835,9.80854 -2.9217,6.20081 -8.4741,10.85147 -14.9002,12.48031 -2.3299,0.59056 -7.4089,0.85754 -9.6075,0.50501 z m 9.5383,-9.07994 c 5.5972,-2.76629 8.5381,-8.63055 8.5381,-17.02538 0,-8.40688 -2.9395,-14.2584 -8.5574,-17.03492 -2.3768,-1.17469 -2.5279,-1.20508 -5.9915,-1.20508 -3.4636,0 -3.6147,0.0304 -5.9915,1.20508 -2.9411,1.45357 -4.8762,3.46525 -6.4918,6.7486 -1.4691,2.98564 -2.0656,5.95608 -2.0656,10.28632 0,9.28773 3.5614,15.40671 10.3847,17.8423 1.2185,0.43493 2.3438,0.54929 4.6801,0.47562 2.8075,-0.0885 3.287,-0.20132 5.4949,-1.29254 z m 312.6602,9.04548 c -6.791,-1.22182 -11.8876,-5.97511 -13.7422,-12.81645 -0.7536,-2.78039 -0.7637,-8.67067 -0.019,-11.47129 1.7074,-6.42563 6.2106,-11.08685 12.2239,-12.65314 1.0557,-0.27496 3.2264,-0.48998 4.9467,-0.48998 5.3312,0 9.2418,1.53235 12.64,4.95285 3.4923,3.51517 5.0802,7.87494 5.0727,13.92715 -0.01,6.1319 -1.5012,10.0947 -5.1977,13.79121 -3.2474,3.24743 -6.5943,4.67263 -11.555,4.92046 -1.496,0.0747 -3.4621,0.002 -4.369,-0.16081 z m 6.929,-7.5654 c 1.5901,-0.64705 3.6895,-2.81887 4.4631,-4.61694 1.5703,-3.65042 1.6017,-9.23478 0.072,-12.80146 -1.4782,-3.44626 -4.3933,-5.40081 -8.0549,-5.40081 -3.6616,0 -6.5766,1.95455 -8.0549,5.40081 -1.5284,3.56338 -1.4964,9.23546 0.072,12.79031 0.726,1.64542 2.5397,3.68203 3.9271,4.40987 2.0659,1.08383 5.2247,1.17482 7.5755,0.21822 z m 222.1923,7.44169 c -6.3987,-1.21738 -11.3557,-6.01667 -13.1242,-12.70694 -0.6653,-2.51666 -0.7427,-8.36109 -0.1435,-10.84021 1.7489,-7.23644 7.3616,-12.52404 14.3177,-13.4883 6.2266,-0.86314 12.5998,1.55395 15.8801,6.0226 2.5778,3.51163 3.6603,6.69775 3.977,11.7057 l 0.1973,3.12 h -13.2129 -13.2129 l 0.1894,1.59968 c 0.3743,3.16027 2.31,6.13813 4.8294,7.42976 1.6558,0.84884 5.3787,1.13378 7.4042,0.56667 1.9367,-0.54225 3.7906,-1.92725 4.6917,-3.50522 l 0.7344,-1.28596 3.9547,-0.002 3.9547,-0.002 -0.2095,0.88 c -1.0381,4.36003 -5.5174,8.60214 -10.6858,10.11994 -2.4727,0.72613 -6.8308,0.90298 -9.5418,0.38721 z M 1845.9214,833.52 c -0.645,-3.20303 -2.8177,-5.85652 -5.5605,-6.79107 -3.0081,-1.02498 -6.8162,-0.41821 -9.0785,1.44653 -1.1949,0.98498 -2.5938,3.5076 -2.9638,5.34454 l -0.2094,1.04 h 9.0108 9.0109 z M 1054.08,856.62043 c -2.5884,-0.45015 -5.5451,-2.01054 -6.8674,-3.62417 -2.8157,-3.43615 -3.1332,-9.04038 -0.7105,-12.54154 2.1142,-3.0554 5.5843,-4.38059 14.5171,-5.54396 2.6726,-0.34806 5.2985,-0.85999 5.8354,-1.13762 2.5733,-1.33073 1.0827,-5.74979 -2.3864,-7.07465 -1.9109,-0.7298 -5.5438,-0.50848 -7.4173,0.45187 -1.3927,0.71391 -2.9709,2.64956 -2.9709,3.64392 0,0.51112 -0.3903,0.56572 -4.0446,0.56572 h -4.0445 l 0.1865,-1.57506 c 0.5319,-4.49111 4.4737,-8.24195 10.1426,-9.65123 2.5675,-0.63827 8.6569,-0.55332 11.0263,0.15382 5.366,1.60138 8.2482,4.4831 9.1289,9.12733 0.1852,0.97649 0.3248,7.12622 0.3248,14.30882 V 856.32 h -4.32 -4.32 l -0.017,-2.64 c -0.016,-2.56629 -0.032,-2.61766 -0.5452,-1.84 -1.1472,1.73656 -3.2625,3.46821 -5.0567,4.13951 -2.1399,0.80065 -5.9036,1.08574 -8.4613,0.64092 z m 9.8849,-6.99252 c 2.9711,-1.53687 4.1951,-3.95288 4.1951,-8.28023 0,-2.13636 -0.057,-2.35319 -0.56,-2.14859 -1.2443,0.50566 -2.5167,0.79217 -5.78,1.3015 -4.3699,0.68207 -6.4769,1.46974 -7.7207,2.88631 -1.8478,2.10456 -1.0366,5.29803 1.6673,6.56392 1.9001,0.88953 6.1803,0.72094 8.1983,-0.32291 z m 53.4751,6.99252 c -2.5884,-0.45015 -5.5451,-2.01054 -6.8674,-3.62417 -2.8157,-3.43615 -3.1332,-9.04038 -0.7105,-12.54154 2.1142,-3.0554 5.5843,-4.38059 14.5171,-5.54396 2.6726,-0.34806 5.2985,-0.85999 5.8354,-1.13762 2.5733,-1.33073 1.0827,-5.74979 -2.3864,-7.07465 -1.9109,-0.7298 -5.5438,-0.50848 -7.4173,0.45187 -1.3927,0.71391 -2.9709,2.64956 -2.9709,3.64392 0,0.51112 -0.3903,0.56572 -4.0446,0.56572 h -4.0445 l 0.1865,-1.57506 c 0.5319,-4.49111 4.4737,-8.24195 10.1426,-9.65123 2.5675,-0.63827 8.6569,-0.55332 11.0263,0.15382 5.366,1.60138 8.2482,4.4831 9.1289,9.12733 0.1852,0.97649 0.3248,7.12622 0.3248,14.30882 V 856.32 h -4.32 -4.32 l -0.017,-2.64 c -0.016,-2.56629 -0.032,-2.61766 -0.5452,-1.84 -1.1472,1.73656 -3.2625,3.46821 -5.0567,4.13951 -2.1399,0.80065 -5.9036,1.08574 -8.4613,0.64092 z m 9.8849,-6.99252 c 2.9711,-1.53687 4.1951,-3.95288 4.1951,-8.28023 0,-2.13636 -0.056,-2.35319 -0.56,-2.14859 -1.2443,0.50566 -2.5167,0.79217 -5.78,1.3015 -4.3699,0.68207 -6.4769,1.46974 -7.7207,2.88631 -1.8478,2.10456 -1.0366,5.29803 1.6673,6.56392 1.9001,0.88953 6.1803,0.72094 8.1983,-0.32291 z m 262.1151,6.99252 c -2.5884,-0.45015 -5.5451,-2.01054 -6.8674,-3.62417 -2.8157,-3.43615 -3.1331,-9.04038 -0.7105,-12.54154 2.1142,-3.0554 5.5843,-4.38059 14.5171,-5.54396 2.6726,-0.34806 5.2985,-0.85999 5.8354,-1.13762 2.5734,-1.33073 1.0827,-5.74979 -2.3864,-7.07465 -1.9109,-0.7298 -5.5437,-0.50848 -7.4173,0.45187 -1.3927,0.71391 -2.9709,2.64956 -2.9709,3.64392 0,0.51112 -0.3903,0.56572 -4.0446,0.56572 h -4.0445 l 0.1865,-1.57506 c 0.5319,-4.49111 4.4737,-8.24195 10.1426,-9.65123 2.5675,-0.63827 8.6569,-0.55332 11.0264,0.15382 5.3659,1.60138 8.2481,4.4831 9.1289,9.12733 0.1851,0.97649 0.3247,7.12622 0.3247,14.30882 V 856.32 h -4.32 -4.32 l -0.017,-2.64 c -0.016,-2.56629 -0.032,-2.61766 -0.5452,-1.84 -1.1471,1.73656 -3.2625,3.46821 -5.0567,4.13951 -2.1399,0.80065 -5.9036,1.08574 -8.4613,0.64092 z m 9.8849,-6.99252 c 2.9711,-1.53687 4.1951,-3.95288 4.1951,-8.28023 0,-2.13636 -0.056,-2.35319 -0.56,-2.14859 -1.2443,0.50566 -2.5167,0.79217 -5.78,1.3015 -4.3699,0.68207 -6.4769,1.46974 -7.7207,2.88631 -1.8478,2.10456 -1.0366,5.29803 1.6673,6.56392 1.9001,0.88953 6.1804,0.72094 8.1983,-0.32291 z M 1520,856.62043 c -2.5884,-0.45015 -5.5451,-2.01054 -6.8674,-3.62417 -2.8157,-3.43615 -3.1331,-9.04038 -0.7105,-12.54154 2.1142,-3.0554 5.5843,-4.38059 14.5171,-5.54396 2.6726,-0.34806 5.2985,-0.85999 5.8354,-1.13762 2.5734,-1.33073 1.0827,-5.74979 -2.3864,-7.07465 -1.9109,-0.7298 -5.5437,-0.50848 -7.4173,0.45187 -1.3927,0.71391 -2.9709,2.64956 -2.9709,3.64392 0,0.51112 -0.3903,0.56572 -4.0446,0.56572 h -4.0445 l 0.1865,-1.57506 c 0.5319,-4.49111 4.4737,-8.24195 10.1426,-9.65123 2.5675,-0.63827 8.6569,-0.55332 11.0264,0.15382 5.3659,1.60138 8.2481,4.4831 9.1289,9.12733 0.1851,0.97649 0.3247,7.12622 0.3247,14.30882 V 856.32 h -4.32 -4.32 l -0.017,-2.64 c -0.016,-2.56629 -0.032,-2.61766 -0.5452,-1.84 -1.1471,1.73656 -3.2625,3.46821 -5.0567,4.13951 -2.1399,0.80065 -5.9036,1.08574 -8.4613,0.64092 z m 9.8849,-6.99252 c 2.9711,-1.53687 4.1951,-3.95288 4.1951,-8.28023 0,-2.13636 -0.056,-2.35319 -0.56,-2.14859 -1.2443,0.50566 -2.5167,0.79217 -5.78,1.3015 -4.3699,0.68207 -6.4769,1.46974 -7.7207,2.88631 -1.8478,2.10456 -1.0366,5.29803 1.6673,6.56392 1.9001,0.88953 6.1804,0.72094 8.1983,-0.32291 z m 219.5551,6.99252 c -2.5884,-0.45015 -5.5451,-2.01054 -6.8674,-3.62417 -2.8157,-3.43615 -3.1331,-9.04038 -0.7105,-12.54154 2.1142,-3.0554 5.5843,-4.38059 14.5172,-5.54396 2.6725,-0.34806 5.2984,-0.85999 5.8353,-1.13762 2.5734,-1.33073 1.0827,-5.74979 -2.3864,-7.07465 -1.9109,-0.7298 -5.5437,-0.50848 -7.4173,0.45187 -1.3927,0.71391 -2.9709,2.64956 -2.9709,3.64392 0,0.51112 -0.3903,0.56572 -4.0445,0.56572 h -4.0446 l 0.1865,-1.57506 c 0.5319,-4.49111 4.4737,-8.24195 10.1426,-9.65123 2.5675,-0.63827 8.6569,-0.55332 11.0264,0.15382 5.3659,1.60138 8.2481,4.4831 9.1289,9.12733 0.1851,0.97649 0.3247,7.12622 0.3247,14.30882 V 856.32 h -4.32 -4.32 l -0.017,-2.64 c -0.016,-2.56629 -0.032,-2.61766 -0.5452,-1.84 -1.1471,1.73656 -3.2625,3.46821 -5.0567,4.13951 -2.1399,0.80065 -5.9036,1.08574 -8.4613,0.64092 z m 9.8849,-6.99252 c 2.9711,-1.53687 4.1951,-3.95288 4.1951,-8.28023 0,-2.13636 -0.056,-2.35319 -0.56,-2.14859 -1.2443,0.50566 -2.5167,0.79217 -5.78,1.3015 -4.3699,0.68207 -6.4769,1.46974 -7.7207,2.88631 -1.8478,2.10456 -1.0366,5.29803 1.6673,6.56392 1.9001,0.88953 6.1804,0.72094 8.1983,-0.32291 z m 37.1551,6.90816 c -0.968,-0.22414 -2.3289,-0.68258 -3.0242,-1.01875 -1.3151,-0.63581 -3.5008,-2.61526 -4.4137,-3.99732 -0.5125,-0.77574 -0.529,-0.71509 -0.5453,2 l -0.017,2.8 h -4.32 -4.32 v -25.6 -25.6 h 4.32 4.32 v 9.92 c 0,5.456 0.108,9.91454 0.24,9.90786 0.132,-0.007 0.6237,-0.56728 1.0926,-1.24577 1.0336,-1.49556 3.0719,-2.94394 5.2274,-3.71456 2.2958,-0.82076 7.0641,-0.76244 9.5146,0.11636 6.3127,2.26386 10.0205,8.22179 10.4021,16.71482 0.4275,9.51696 -3.519,16.84255 -10.3374,19.18844 -2.3476,0.80767 -5.93,1.04047 -8.1393,0.52892 z m 4.48,-7.47109 c 1.6753,-0.68243 3.3613,-2.50607 4.3465,-4.70137 1.5567,-3.4688 1.4476,-9.77425 -0.2263,-13.07471 -1.6271,-3.20823 -4.1736,-4.82302 -7.6059,-4.82302 -5.7484,0 -9.3143,4.44631 -9.3143,11.61412 0,5.18367 1.8036,8.8951 5.2245,10.75103 2.0255,1.0989 5.2107,1.19726 7.5755,0.23395 z M 997.76001,830.6914 v -25.6286 l 10.95999,0.12812 c 12.522,0.14638 13.8215,0.33097 18.64,2.64783 6.1577,2.96073 10.2352,8.41953 11.9201,15.95803 0.3493,1.56299 0.5046,3.79735 0.4921,7.08322 -0.015,4.08119 -0.1404,5.26597 -0.8346,7.91163 -1.1588,4.41634 -3.0338,7.84491 -5.8093,10.62259 -2.672,2.67412 -4.9508,4.08937 -8.5647,5.31912 -3.7598,1.2794 -7.1493,1.58473 -17.6036,1.58576 l -9.19999,9e-4 z m 21.68609,17.46615 c 7.458,-1.75837 11.2739,-7.70298 11.2739,-17.56314 0,-9.56163 -3.7432,-15.40039 -11.1018,-17.31708 -1.2825,-0.33404 -3.4935,-0.47733 -7.3654,-0.47733 h -5.5328 v 17.92 17.92 l 5.36,-0.005 c 3.5955,-0.003 6.0204,-0.16043 7.3661,-0.47772 z m 75.6663,7.80658 c -2.2327,-0.37183 -4.6417,-1.62437 -5.639,-2.93194 -1.5847,-2.07756 -1.7934,-3.88157 -1.7934,-15.49942 V 826.88 h -3.2 -3.2 v -3.52 -3.52 h 3.2 3.2 v -4.8 -4.8 h 4.32 4.32 v 4.8 4.8 h 3.68 3.68 v 3.52 3.52 h -3.68 -3.68 v 9.87225 c 0,6.06826 0.1295,10.24356 0.3359,10.83589 0.4558,1.30738 1.4737,1.69186 4.4792,1.69186 h 2.5449 v 3.52 3.52 l -3.44,-0.0374 c -1.892,-0.0206 -4.1994,-0.16388 -5.1276,-0.31846 z m 137.92,0 c -2.2327,-0.37183 -4.6417,-1.62437 -5.639,-2.93194 -1.5846,-2.07756 -1.7934,-3.88157 -1.7934,-15.49942 V 826.88 h -3.2 -3.2 v -3.52 -3.52 h 3.2 3.2 v -4.8 -4.8 h 4.32 4.32 v 4.8 4.8 h 3.68 3.68 v 3.52 3.52 h -3.68 -3.68 v 9.87225 c 0,6.06826 0.1295,10.24356 0.3359,10.83589 0.4558,1.30738 1.4737,1.69186 4.4792,1.69186 h 2.5449 v 3.52 3.52 l -3.44,-0.0374 c -1.892,-0.0206 -4.1994,-0.16388 -5.1276,-0.31846 z M 1315.84,838.24 v -18.08 h 4.148 4.148 l 0.092,2.94076 0.092,2.94077 0.9672,-1.90077 c 1.579,-3.103 4.5248,-4.62076 8.9686,-4.62076 H 1336 l 7e-4,3.92 8e-4,3.92 -2.9608,-0.0982 c -2.614,-0.0867 -3.1293,-0.009 -4.4007,0.66437 -1.8619,0.98596 -3.3692,2.97784 -3.8105,5.03577 -0.2138,0.99675 -0.3495,5.84829 -0.3495,12.49376 V 856.32 h -4.32 -4.32 z m 144.32,0 v -18.08 h 4.32 4.32 v 18.08 18.08 h -4.32 -4.32 z m 15.68,15.06768 v -3.01233 l 9.3272,-11.46767 9.3272,-11.46768 -9.3272,-0.0848 -9.3272,-0.0848 V 823.67517 820.16 h 14.56 14.56 v 3.04985 3.04984 l -9.12,11.25852 c -5.016,6.19218 -9.12,11.37175 -9.12,11.51015 0,0.1384 4.104,0.25164 9.12,0.25164 h 9.12 v 3.52 3.52 h -14.56 -14.56 z m 85.1924,2.65645 c -2.2327,-0.37183 -4.6417,-1.62437 -5.639,-2.93194 -1.5846,-2.07756 -1.7934,-3.88157 -1.7934,-15.49942 V 826.88 h -3.2 -3.2 v -3.52 -3.52 h 3.2 3.2 v -4.8 -4.8 h 4.32 4.32 v 4.8 4.8 h 3.68 3.68 v 3.52 3.52 h -3.68 -3.68 v 9.87225 c 0,6.06826 0.1295,10.24356 0.336,10.83589 0.4557,1.30738 1.4736,1.69186 4.4791,1.69186 h 2.5449 v 3.52 3.52 l -3.44,-0.0374 c -1.892,-0.0206 -4.1994,-0.16388 -5.1276,-0.31846 z M 1575.04,838.24 v -18.08 h 4.32 4.32 v 18.08 18.08 h -4.32 -4.32 z m 128.32,-7.52 v -25.6 h 4.48 4.48 v 21.6 21.6 h 11.84 11.84 v 4 4 h -16.32 -16.32 z m 163.8529,25.23557 c -0.9609,-0.15929 -2.4729,-0.69793 -3.36,-1.19698 -1.2886,-0.72496 -1.8059,-1.28177 -2.5729,-2.76991 l -0.96,-1.86255 -0.092,-22.50306 -0.092,-22.50307 h 4.3256 4.3257 l 0.087,21.62838 0.087,21.62837 0.7555,0.61163 c 0.4873,0.39452 1.254,0.61162 2.16,0.61162 h 1.4045 v 3.36 3.36 l -2.16,-0.0374 c -1.188,-0.0206 -2.9462,-0.16774 -3.9071,-0.32702 z M 1878.4,838.24 v -18.08 h 4.32 4.32 v 18.08 18.08 h -4.32 -4.32 z m -458.56,-0.32 v -18.08 h 4.32 4.32 l 0.01,2.8 0.01,2.8 0.696,-0.96 c 2.0027,-2.76216 4.6248,-4.38114 8.0667,-4.98051 6.5997,-1.14929 12.2699,2.14596 14.3305,8.32813 0.6618,1.98549 0.7034,2.75855 0.8143,15.13238 l 0.1169,13.04 h -4.3245 -4.3245 l -0.098,-11.92 c -0.088,-10.66803 -0.1585,-12.05444 -0.6749,-13.2 -1.3156,-2.91868 -3.5699,-4.15433 -7.2044,-3.94896 -3.0983,0.17507 -4.9674,1.34396 -6.2937,3.93602 l -0.9649,1.88574 -0.098,11.6236 -0.098,11.6236 h -4.3017 -4.3018 z m 211.52,0 v -18.08 h 4.32 4.32 l 0.01,2.8 0.01,2.8 0.696,-0.96 c 2.0027,-2.76216 4.6248,-4.38114 8.0667,-4.98051 6.5997,-1.14929 12.2699,2.14596 14.3305,8.32813 0.6618,1.98549 0.7034,2.75855 0.8143,15.13238 l 0.1169,13.04 h -4.3245 -4.3245 l -0.098,-11.92 c -0.088,-10.66803 -0.1585,-12.05444 -0.6749,-13.2 -1.3156,-2.91868 -3.5699,-4.15433 -7.2044,-3.94896 -3.0983,0.17507 -4.9674,1.34396 -6.2937,3.93602 l -0.9649,1.88574 -0.098,11.6236 -0.098,11.6236 h -4.3017 -4.3018 z m 263.36,0 v -18.08 h 4.32 4.32 l 0.01,2.8 0.01,2.8 0.696,-0.96 c 2.0027,-2.76216 4.6248,-4.38114 8.0667,-4.98051 6.5997,-1.14929 12.2699,2.14596 14.3305,8.32813 0.6618,1.98549 0.7034,2.75855 0.8143,15.13238 l 0.1169,13.04 h -4.3245 -4.3245 l -0.098,-11.92 c -0.088,-10.66803 -0.1585,-12.05444 -0.6748,-13.2 -1.3157,-2.91868 -3.57,-4.15433 -7.2045,-3.94896 -3.0983,0.17507 -4.9674,1.34396 -6.2937,3.93602 l -0.9649,1.88574 -0.098,11.6236 -0.098,11.6236 h -4.3017 -4.3018 z m -432.1266,-23.5323 c -3.2073,-0.95979 -4.3243,-5.26066 -2.0415,-7.86066 2.4981,-2.84515 7.6125,-1.75578 8.5773,1.82693 1.0709,3.97702 -2.4737,7.24931 -6.5358,6.03373 z m 114.88,0 c -3.2073,-0.95979 -4.3243,-5.26066 -2.0415,-7.86066 2.4981,-2.84515 7.6125,-1.75578 8.5773,1.82693 1.0709,3.97702 -2.4737,7.24931 -6.5358,6.03373 z m 303.36,0 c -3.2073,-0.95979 -4.3243,-5.26066 -2.0415,-7.86066 2.4981,-2.84515 7.6126,-1.75578 8.5773,1.82693 1.0709,3.97702 -2.4737,7.24931 -6.5358,6.03373 z m -365.9485,-86.07571 c -52.9878,-3.01155 -97.8249,-28.27532 -126.6325,-71.35199 -18.7019,-27.96536 -28.6386,-58.91015 -31.4947,-98.08 -0.5129,-7.03413 -0.5134,-27.84236 -9e-4,-35.04 1.4972,-21.02785 4.7883,-38.52028 10.4457,-55.52 3.8154,-11.46469 8.9164,-22.94779 14.5703,-32.8 3.0204,-5.26319 10.134,-15.91543 13.5281,-20.25767 19.737,-25.25022 45.6076,-43.44119 75.7845,-53.28794 17.4752,-5.70219 34.0602,-8.18684 54.5146,-8.16702 10.0597,0.01 15.0279,0.30371 23.68,1.40112 43.6717,5.5392 81.5835,27.56424 107.6701,62.55151 19.1814,25.72608 30.9264,55.81132 35.3537,90.56 2.6283,20.62881 2.625,45.78724 -0.01,65.92 -3.1832,24.33469 -9.6118,45.59589 -19.6684,65.04887 -16.8526,32.59904 -40.8355,56.75933 -71.668,72.19798 -18.6643,9.34569 -38.0462,14.61173 -60.768,16.51054 -5.665,0.47341 -19.4882,0.64526 -25.306,0.3146 z m 25.3471,-58.51526 c 28.1371,-4.19321 50.7649,-18.54824 66.6406,-42.27673 11.0064,-16.45073 17.767,-35.21708 20.7891,-57.70733 1.4008,-10.42478 1.619,-14.34278 1.6067,-28.85267 -0.012,-14.3693 -0.2756,-18.74433 -1.7834,-29.6 -4.9312,-35.50333 -21.1235,-65.07155 -44.966,-82.11078 -12.8962,-9.2163 -26.7159,-14.61389 -43.479,-16.98163 -5.9301,-0.83762 -21.2508,-0.83914 -27.2,-0.003 -18.1559,2.55269 -34.0834,9.29562 -47.84,20.25318 -3.7645,2.99854 -11.5375,10.82524 -14.6354,14.73642 -14.0647,17.75721 -22.6002,38.61831 -26.295,64.26551 -1.4964,10.38692 -1.7744,15.01423 -1.7786,29.6 0,14.14059 0.1732,17.52495 1.4332,27.36 3.3319,26.00798 12.1943,48.31661 26.2512,66.08 3.4965,4.41832 12.1204,12.98773 16.1446,16.04247 14.0012,10.62815 28.6704,16.79925 45.5288,19.15324 6.3052,0.88041 6.691,0.89905 16.3912,0.79235 6.8265,-0.0751 9.785,-0.24359 13.192,-0.75133 z M 997.44001,541.27962 V 359.6479 l 69.19999,0.12813 c 71.715,0.13279 70.9611,0.11899 83.236,1.5241 17.2828,1.97836 32.6996,5.74897 47.841,11.70087 4.9804,1.95771 16.8887,7.8301 21.6163,10.65966 11.3302,6.78141 20.4202,13.84266 29.4718,22.89428 28.6353,28.63528 45.0549,68.42406 48.1358,116.64506 1.2965,20.29216 0.3435,40.98997 -2.7333,59.36 -5.5214,32.96638 -17.6624,60.50818 -36.8876,83.68 -4.0109,4.83422 -13.2965,14.11458 -18.12,18.10976 -25.1368,20.82019 -55.1938,32.9826 -91.2,36.90357 -13.0328,1.41924 -11.9276,1.39873 -82.48,1.53068 l -68.07999,0.12733 z M 1129.12,667.51142 c 30.2212,-2.19897 52.7569,-11.08294 70.1804,-27.66625 13.3187,-12.67647 22.8481,-30.29005 28.2216,-52.16271 2.1295,-8.66848 3.5047,-17.33797 4.5434,-28.64246 0.5457,-5.93995 0.543,-30.09745 0,-36.16 -2.6691,-29.57629 -10.1547,-52.10079 -23.0409,-69.3313 -14.9275,-19.95997 -35.902,-32.13989 -63.2604,-36.73531 -11.2151,-1.88382 -11.1607,-1.88159 -49.04,-2.00928 l -34.96,-0.11785 V 541.26313 667.84 l 31.44,-10e-4 c 18.1847,-7.5e-4 33.3288,-0.13874 35.92,-0.32728 z m 636,-126.23142 v -181.6 h 32.16 32.16 v 153.6 153.6 h 84.16 84.16 v 28 28 h -116.32 -116.32 z m 297.6,0 v -181.6 h 32.16 32.16 v 181.6 181.6 h -32.16 -32.16 z m 147.84,0 v -181.6 h 34.6878 34.6877 l 64.0937,101.84 c 72.1928,114.70889 68.7437,109.19747 74.7804,119.49369 4.8384,8.25224 19.097,33.22298 24.2456,42.4606 3.0913,5.54654 3.1881,5.67805 3.2975,4.48 0.062,-0.67886 -0.052,-7.35429 -0.2528,-14.83429 -0.8723,-32.47028 -0.9701,-47.27543 -0.9749,-147.6 l -0.01,-105.84 h 32.16 32.16 v 181.60142 181.60142 l -34.7855,-0.0814 -34.7856,-0.0814 -56.7458,-89.92 c -63.0091,-99.84466 -77.5192,-123.55177 -105.703,-172.70073 -2.3242,-4.05315 -4.0303,-6.71577 -4.1007,-6.4 -0.066,0.2974 0.049,5.43673 0.2564,11.42073 0.2074,5.984 0.5295,15.416 0.7158,20.96 0.209,6.21682 0.3964,53.52544 0.4891,123.44 l 0.1502,113.36 h -32.1854 -32.1855 z m 356.2348,181.2 c 0.079,-0.22 29.2181,-81.93681 64.7542,-181.5929 l 64.611,-181.1929 40.3566,-0.007 40.3565,-0.007 0.5098,1.36 c 0.8523,2.27366 128.5371,361.59898 128.5371,361.72377 0,0.0639 -15.892,0.11623 -35.3156,0.11623 h -35.3156 l -21.2867,-63.76 c -40.2772,-120.64237 -44.6234,-133.99651 -61.6275,-189.36 -3.1623,-10.296 -7.72,-25.344 -10.1282,-33.44 -5.8451,-19.65037 -5.5213,-18.62891 -5.7316,-18.08 -0.1012,0.264 -1.9231,6.312 -4.0488,13.44 -12.7601,42.78841 -24.66,80.05195 -39.3946,123.36 -9.4353,27.73247 -13.3298,39.12884 -42.6207,124.72 l -14.7565,43.12 h -34.5213 c -27.4801,0 -34.4921,-0.0816 -34.3781,-0.4 z"
       id="path1" /><path
       style="fill:#ffffff;fill-opacity:1"
       d="m 2300.32,975.35359 c -23.7547,-0.97119 -42.2966,-4.55345 -58.08,-11.22094 -9.5702,-4.04283 -23.7428,-11.61707 -31.8212,-17.00615 -14.7105,-9.81337 -38.1448,-30.58761 -51.7169,-45.8465 -14.6918,-16.51768 -27.3153,-32.88296 -62.6962,-81.28 -36.3316,-49.69746 -48.3432,-64.89851 -69.9088,-88.47198 -6.3583,-6.95028 -23.2333,-23.92696 -28.9859,-29.16064 -15.6509,-14.23882 -31.7641,-26.44349 -53.911,-40.83387 -17.2383,-11.20097 -27.6632,-17.33725 -38.72,-22.79148 -19.6188,-9.67779 -42.9871,-18.00831 -65.6,-23.38566 -3.872,-0.92077 -7.58,-1.80617 -8.24,-1.96758 l -1.2,-0.29346 V 587.82767 562.56 h 0.6686 c 1.3049,0 16.5594,3.20083 23.633,4.95887 37.5784,9.33961 70.3554,22.92199 101.0641,41.87973 51.2155,31.61753 80.9173,56.59068 118.8562,99.93408 18.169,20.75721 29.5572,35.44528 64.0946,82.66732 40.798,55.78195 50.3791,67.86143 67.0219,84.49889 13.4553,13.451 23.3266,21.78082 34.5816,29.18142 17.8042,11.70692 32.551,16.97963 53.6,19.16462 5.9388,0.61646 23.3317,0.51945 28.48,-0.15885 7.7827,-1.02538 14.7046,-2.93046 21.4661,-5.90804 11.904,-5.24213 29.4055,-18.97412 47.0217,-36.89421 12.142,-12.35137 20.5942,-23.28514 36.9401,-47.78567 14.921,-22.36471 22.801,-35.21514 41.6117,-67.85816 23.5039,-40.78763 37.2836,-61.62138 60.109,-90.88 21.7263,-27.84984 39.8649,-46.07785 63.6202,-63.93375 35.8366,-26.93699 90.3023,-50.7251 150.9912,-65.94598 39.369,-9.87381 76.7466,-15.57957 117.6,-17.95184 21.5369,-1.2506 57.8847,-1.44489 65.6,-0.35065 13.5875,1.92707 21.6699,7.6446 24.6849,17.46222 0.9528,3.10254 1.0351,8.67926 0.1748,11.83689 -1.8255,6.70056 -7.1279,12.52758 -14.0435,15.43323 -7.2333,3.03912 -15.2192,3.85218 -41.6962,4.24523 -46.8374,0.6953 -85.3041,5.01362 -124.32,13.9563 -43.3234,9.92999 -78.3527,22.09252 -111.04,38.55423 -25.416,12.79981 -43.6479,25.74422 -62.8372,44.61356 -13.2543,13.03329 -22.6424,24.05703 -38.2899,44.96056 -16.5158,22.06358 -28.0824,40.12104 -49.9113,77.92 -17.5336,30.36118 -27.4199,46.44863 -41.2971,67.2 -23.2244,34.72891 -37.6353,51.61848 -61.5845,72.17692 -10.1544,8.71677 -21.9493,17.86035 -28.428,22.03782 -13.951,8.99564 -29.2173,14.29855 -47.892,16.63583 -8.8557,1.10836 -19.9598,1.53715 -29.6,1.14302 z M 1528.64,621.88265 c -1.848,-0.0529 -8.904,-0.25168 -15.68,-0.44182 -27.3185,-0.76659 -45.86,-1.753 -57.6,-3.06434 -26.9883,-3.01456 -69.6453,-13.54749 -106.4,-26.27242 -17.0256,-5.89448 -27.2457,-10.07538 -53.44,-21.8614 -48.1072,-21.64573 -82.1461,-35.11721 -123.68,-48.94859 -33.3652,-11.1111 -75.3667,-19.73621 -113.76,-23.36093 -22.2741,-2.1029 -41.3279,-2.87971 -71.03999,-2.89626 -20.66177,-0.0115 -25.95379,-0.20471 -31.51379,-1.1505 -11.78177,-2.00415 -19.45749,-8.19619 -21.97381,-17.72639 -0.7529,-2.85147 -0.75362,-7.81524 -0.002,-10.76871 2.49551,-9.80047 10.91491,-16.30877 23.88917,-18.46664 10.6255,-1.76723 34.17459,-2.18925 64.00002,-1.14696 41.2758,1.44244 72.5645,5.24683 112,13.61804 21.6328,4.59211 35.8796,8.43692 55.52,14.9832 44.4066,14.80103 78.6277,28.32254 128,50.57552 21.7055,9.78304 30.5936,13.49733 43.52,18.18663 21.5781,7.82789 48.3322,15.51325 72.48,20.82057 19.807,4.35327 31.7408,5.78485 57.6,6.9097 44.7613,1.94708 87.9162,2.07022 109.6,0.31273 5.1691,-0.41895 15.9758,-1.68833 22.6104,-2.65585 l 5.0103,-0.73066 -0.1596,1.14121 c -1.7898,12.79607 -4.378,23.4712 -8.1514,33.62122 -1.5079,4.05584 -7.0057,15.77721 -8.0045,17.0656 -0.4918,0.63428 -4.2129,1.06163 -15.9452,1.83122 -5.1034,0.33476 -58.2371,0.67307 -66.88,0.42583 z m 156.16,-11.47887 c 0,-0.0859 0.6405,-2.42592 1.4233,-5.2 2.5633,-9.08397 4.3829,-17.7242 5.7459,-27.28378 0.9046,-6.345 1.7908,-14.65983 1.7908,-16.80292 0,-0.94238 0.1388,-1.43708 0.4032,-1.43708 0.2218,0 3.0658,-0.21301 6.32,-0.47335 16.2768,-1.30215 31.4224,-1.9852 50.7968,-2.29089 l 13.84,-0.21836 v 25.0113 25.0113 l -10.96,0.004 c -19.0435,0.007 -41.1614,1.14294 -62.48,3.20764 -7.2914,0.70617 -6.88,0.67795 -6.88,0.47186 z"
       id="path3" /><path
       style="display:inline;fill:#60b975;fill-opacity:1"
       d="m 2305.28,962.34467 c -19.1827,-0.52059 -38.1792,-3.02629 -48.48,-6.39465 -5.312,-1.73703 -25.3858,-11.50472 -33.44,-16.27154 -7.827,-4.63237 -13.3379,-8.72874 -20.64,-15.34226 -1.584,-1.43462 -4.68,-4.11173 -6.88,-5.94912 -23.6349,-19.73934 -37.042,-35.67229 -83.1935,-98.8671 -40.9832,-56.11782 -48.2413,-65.54631 -66.2649,-86.08 -30.9217,-35.22817 -53.7412,-55.65816 -86.813,-77.72283 -12.1126,-8.08119 -33.5151,-21.52099 -39.6074,-24.87158 -16.4243,-9.03293 -42.3395,-19.29006 -64.6012,-25.56891 -7.5923,-2.1414 -24.731,-5.85844 -25.9256,-6.20934 -0.018,-0.005 0,-0.24745 -0.01,-0.70804 -0.016,-1.63219 0.01,-5.87043 0.01,-10.81196 0,-9.89895 -0.01,-11.23068 0,-11.645 0,-0.16769 13.8824,2.7882 20.6372,4.46114 28.0959,6.95841 59.845,18.96094 81.1502,30.67825 4.307,2.36874 22.7074,13.79168 33.7331,20.94153 39.4726,25.59668 64.6772,47.75997 99.3773,87.38582 15.8356,18.08352 25.9577,31.00537 49.625,63.35092 43.7024,59.72713 46.0165,62.83175 58.3176,78.24 14.6416,18.33984 22.799,26.90609 37.4801,39.35893 3.168,2.68715 7.488,6.42603 9.6,8.30862 5.1222,4.56578 8.8505,7.3454 14.1533,10.55202 8.8811,5.37038 27.8651,14.5834 32.5667,15.80476 9.057,2.35279 21.3236,3.85364 37.12,4.54174 19.7441,0.86007 35.8495,-1.75187 48.3604,-7.843 2.9342,-1.42855 4.8758,-2.75885 11.04,-7.56419 27.517,-21.45101 40.8047,-34.03523 53.5096,-50.67679 9.372,-12.27597 21.4917,-29.96598 33.8734,-49.44209 10.2827,-16.17453 16.104,-25.93887 29.3794,-49.28 18.0931,-31.81147 36.8622,-61.15416 49.3345,-77.12707 1.44,-1.84411 4.9184,-6.37693 7.7298,-10.07293 13.5279,-17.78406 22.6901,-28.39198 34.9819,-40.50168 16.8054,-16.55642 33.8597,-29.65193 53.9652,-41.4384 5.9102,-3.46475 25.0115,-13.11702 33.8258,-17.09288 26.971,-12.16574 55.0929,-21.89517 84.0359,-29.07421 25.7978,-6.39893 32.4455,-7.85762 47.6441,-10.45457 23.6976,-4.04913 45.2181,-6.54186 68.96,-7.98768 12.0942,-0.7365 27.2285,-1.08832 51.36,-1.19394 l 22.08,-0.0966 1.8209,0.89418 c 2.3441,1.15114 4.7998,3.81544 5.6766,6.15889 0.8938,2.38889 0.896,5.89886 0.01,8.27945 -1.2165,3.2514 -4.5465,6.10153 -8.0447,6.88551 -0.8882,0.19905 -12.6619,0.45807 -29.5867,0.65091 -33.416,0.38075 -44.8003,0.90707 -66.3514,3.06754 -24.3878,2.44486 -51.265,6.82184 -69.6,11.33445 -3.52,0.86635 -11.08,2.7282 -16.8,4.13746 -35.9806,8.8647 -67.0533,20.32465 -99.52,36.70403 -10.7953,5.44623 -17.3837,9.23757 -26.08,15.00797 -13.8401,9.18357 -25.149,18.40168 -37.3919,30.47891 -11.9978,11.8355 -19.7371,20.81833 -33.5712,38.96548 -2.9498,3.86937 -6.7458,8.83522 -8.4357,11.03522 -12.8152,16.68353 -30.1824,44.26066 -50.7041,80.51216 -20.3242,35.90258 -47.2632,77.11429 -64.405,98.52784 -9.5422,11.92 -23.072,25.1104 -39.5762,38.5833 -7.9576,6.49598 -21.3987,16.86809 -23.7937,18.3608 -9.3868,5.85055 -23.6837,10.32008 -38.9324,12.17114 -4.2099,0.51104 -15.3362,1.16003 -18.0698,1.054 -0.88,-0.0341 -2.968,-0.0992 -4.64,-0.14457 z m -40.224,-74.6179 c -4.8282,-1.67594 -7.5967,-5.66983 -7.5786,-10.93303 0.01,-1.90225 0.1831,-2.78819 0.843,-4.22978 1.1629,-2.53993 3.3418,-4.76343 5.7647,-5.88251 l 1.9949,-0.92145 23.3082,-0.09 23.3082,-0.09 -40.5882,-40.79639 c -45.9149,-46.15044 -42.834,-42.71199 -42.8212,-47.79131 0.01,-2.29299 0.1478,-3.05531 0.8513,-4.56831 2.7981,-6.01781 9.7958,-8.4962 15.6347,-5.53738 1.1686,0.59219 11.4317,10.69369 42.4442,41.77584 l 40.9028,40.99479 0.16,-23.63573 0.16,-23.63573 1.0431,-2.11844 c 1.214,-2.46551 2.9491,-4.15805 5.4785,-5.34405 1.5256,-0.71532 2.2354,-0.84325 4.6784,-0.84325 2.4525,0 3.1506,0.12684 4.7029,0.85446 1.0026,0.46995 2.4901,1.52165 3.3056,2.33712 0.8154,0.81546 1.8671,2.30296 2.3371,3.30554 l 0.8544,1.82288 0.048,36.32 c 0.026,19.976 -0.062,37.54684 -0.1972,39.0463 -0.4014,4.46134 -2.5107,7.61418 -6.3584,9.50368 l -1.8124,0.89002 -38.4,0.0722 c -36.2972,0.0682 -38.4911,0.0406 -40.064,-0.50543 z M 1523.2,608.29355 c -18.9883,-0.47585 -43.901,-1.47515 -59.52,-2.38746 -6.2548,-0.36534 -9.6916,-0.74198 -14.72,-1.61315 -30.2971,-5.24901 -64.2107,-14.08396 -95.6957,-24.93007 -14.8876,-5.12856 -26.0971,-9.63194 -40.6243,-16.32071 -50.5579,-23.27841 -78.4818,-34.62331 -125.28,-50.89863 -25.6964,-8.93664 -30.5711,-10.36733 -52.16,-15.30858 -43.6607,-9.99306 -75.5646,-13.90715 -124.48,-15.27169 -13.49299,-0.3764 -39.5604,-0.19954 -50.7135,0.34406 -3.66449,0.17861 -6.52023,0.17317 -7.50882,-0.0143 -3.56719,-0.67651 -6.57924,-3.01628 -8.12321,-6.31013 -0.73814,-1.57474 -0.85442,-2.2367 -0.85422,-4.86288 2.9e-4,-3.63609 0.59165,-5.20072 2.89728,-7.66562 2.05189,-2.19364 4.17309,-3.17437 7.63926,-3.53198 5.53029,-0.57058 31.95479,-1.04794 46.42321,-0.83865 59.7392,0.86417 99.2606,5.84055 154.0811,19.4013 13.4006,3.31486 16.5603,4.30925 43.6789,13.74638 42.5338,14.80149 75.0903,28.01933 119.84,48.65473 6.952,3.20576 14.8,6.72784 17.44,7.82683 33.7402,14.04555 79.7262,27.16158 118.24,33.72414 5.9037,1.00595 11.4682,1.37298 36.96,2.43779 26.4171,1.10346 35.7396,1.28103 67.36,1.28303 39.0486,0.002 45.15,-0.28203 60.64,-2.82753 4.6262,-0.76023 6.7918,-0.66018 6.7918,-0.66018 -0.394,3.32108 -3.3017,13.49225 -5.7845,20.14843 -0.8107,2.17337 -1.2026,3.09221 -1.5478,3.89463 -0.044,0.10265 -2.6524,0.15234 -6.1795,0.55341 -12.0128,1.36602 -24.9321,1.77551 -54.24,1.71914 -13.64,-0.0262 -29.192,-0.15777 -34.56,-0.2923 z m 165.4205,-13.30605 c 0.017,-0.0733 0.4065,-1.68277 1.1039,-5.1714 0.6975,-3.48865 1.6109,-8.61286 1.9904,-11.43173 l 0.7028,-5.10828 2.9562,-0.22287 c 21.4118,-1.61429 43.2971,-2.80121 61.0262,-2.80926 l 8.72,-0.004 v 11.30954 11.30954 l -14.8,0.20319 c -20.2219,0.27761 -42.4431,1.46453 -57.8984,3.09257 -3.4065,0.35883 -4.1693,0.37623 -4.1253,0.19204 z"
       id="path2"
       sodipodi:nodetypes="ssssssssssssssssssssssssssssssssssssssscsscssssssssssssssssssscsscccscssscccsssssscccscsssssssssssssssssssssssscssssssssssscsscccssss" /><path
       style="fill:#157a42;fill-opacity:1"
       d="m 538.56001,903.19512 c -9.90266,-2.04202 -18.44784,-9.20309 -22.26817,-18.66128 -1.96941,-4.87576 -1.86789,-3.2368 -1.98552,-32.05384 -0.0768,-18.80229 -0.002,-27.07443 0.26,-28.74346 0.45293,-2.88609 1.47929,-5.95788 2.90572,-8.69654 0.59585,-1.144 1.13261,-2.18862 1.1928,-2.32138 0.0602,-0.13276 -0.96306,0.33711 -2.27388,1.04416 -2.96434,1.59894 -6.19669,2.71313 -9.24749,3.18759 -1.71508,0.26673 -21.47804,0.33831 -73.70346,0.26694 -67.42572,-0.0921 -71.46477,-0.12903 -73.26033,-0.66906 -6.01782,-1.80992 -9.68916,-3.97683 -13.94013,-8.2278 -4.32052,-4.32051 -6.61547,-8.255 -8.23559,-14.11917 -0.51841,-1.87643 -0.56395,-4.26376 -0.56395,-29.56128 0,-25.29752 0.0455,-27.68485 0.56395,-29.56128 1.2675,-4.58781 3.75554,-9.3933 6.39895,-12.35914 l 1.56829,-1.75958 -1.56829,-1.75958 c -2.64341,-2.96584 -5.13145,-7.77133 -6.39895,-12.35914 -0.51841,-1.87643 -0.56395,-4.26376 -0.56395,-29.56128 0,-25.29752 0.0455,-27.68485 0.56395,-29.56128 1.28778,-4.66125 3.80129,-9.47882 6.50322,-12.46455 l 1.6465,-1.81944 -1.64279,-1.80769 c -2.69342,-2.96378 -5.21795,-7.80019 -6.50693,-12.46576 -0.51841,-1.87643 -0.56395,-4.26376 -0.56395,-29.56128 0,-25.29752 0.0455,-27.68485 0.56395,-29.56128 1.2675,-4.58781 3.75554,-9.3933 6.39895,-12.35914 l 1.56829,-1.75958 -1.56829,-1.75958 c -2.64341,-2.96584 -5.13145,-7.77133 -6.39895,-12.35914 -0.51841,-1.87643 -0.56395,-4.26376 -0.56395,-29.56128 0,-25.29752 0.0455,-27.68485 0.56395,-29.56128 1.25517,-4.5432 3.75408,-9.39167 6.33014,-12.28194 l 1.49948,-1.68238 -1.49532,-1.66952 c -2.56619,-2.86513 -5.07786,-7.73582 -6.3343,-12.2836 -0.51841,-1.87643 -0.56395,-4.26376 -0.56395,-29.56128 0,-25.29752 0.0455,-27.68485 0.56395,-29.56128 1.62012,-5.86417 3.91507,-9.79866 8.23559,-14.11917 4.32052,-4.32052 8.255,-6.61547 14.11917,-8.2356 1.92178,-0.53093 6.28461,-0.56395 74.52129,-0.56395 68.23667,0 72.5995,0.033 74.52128,0.56395 4.5432,1.25518 9.39166,3.75409 12.28194,6.33015 l 1.68238,1.49948 1.66952,-1.49533 c 2.86513,-2.56618 7.73582,-5.07786 12.2836,-6.3343 1.92177,-0.53093 6.28461,-0.56395 74.52128,-0.56395 68.23667,0 72.59951,0.033 74.52128,0.56395 4.5432,1.25518 9.39167,3.75409 12.28194,6.33015 l 1.68238,1.49948 1.66952,-1.49533 c 2.86513,-2.56618 7.73582,-5.07786 12.2836,-6.3343 1.92177,-0.53093 6.28461,-0.56395 74.52128,-0.56395 68.23667,0 72.59951,0.033 74.52128,0.56395 5.86418,1.62013 9.79866,3.91508 14.11918,8.2356 4.32052,4.32051 6.61547,8.255 8.23559,14.11917 0.51841,1.87643 0.56395,4.26376 0.56395,29.56128 0,25.29752 -0.0455,27.68485 -0.56395,29.56128 -1.25517,4.5432 -3.75408,9.39167 -6.33015,12.28194 l -1.49947,1.68238 1.49532,1.66952 c 2.56619,2.86513 5.07786,7.73582 6.3343,12.2836 0.51841,1.87643 0.56395,4.26376 0.56395,29.56128 0,25.29752 -0.0455,27.68485 -0.56395,29.56128 -1.2675,4.58781 -3.75554,9.3933 -6.39895,12.35914 l -1.56829,1.75958 1.56829,1.75958 c 2.64341,2.96584 5.13145,7.77133 6.39895,12.35914 0.51841,1.87643 0.56395,4.26376 0.56395,29.56128 0,25.29752 -0.0455,27.68485 -0.56395,29.56128 -1.28779,4.66125 -3.8013,9.47882 -6.50322,12.46455 l -1.6465,1.81944 1.64279,1.80769 c 2.69342,2.96378 5.21795,7.80019 6.50693,12.46576 0.51841,1.87643 0.56395,4.26376 0.56395,29.56128 0,25.29752 -0.0455,27.68485 -0.56395,29.56128 -1.62012,5.86417 -3.91507,9.79866 -8.23559,14.11917 -4.32052,4.32052 -8.255,6.61547 -14.11918,8.2356 -1.92177,0.53093 -6.28461,0.56395 -74.52128,0.56395 -68.23667,0 -72.59951,-0.033 -74.52128,-0.56395 -4.48488,-1.23906 -9.25432,-3.68243 -12.25193,-6.27662 l -1.70679,-1.47709 1.76966,1.97564 c 2.76267,3.08422 5.18674,7.64578 6.61166,12.4417 0.51542,1.73478 0.57399,4.20001 0.67237,28.30032 0.0768,18.80229 0.002,27.07443 -0.26001,28.74346 -0.71094,4.53019 -2.87042,9.50935 -5.81881,13.41654 l -1.50922,2 1.50922,2 c 2.94839,3.90719 5.10787,8.88635 5.81881,13.41654 0.26193,1.66903 0.33676,9.94117 0.26001,28.74346 -0.11764,28.81704 -0.0161,27.17808 -1.98552,32.05384 -1.63763,4.05437 -3.45397,6.73287 -6.90771,10.18661 -4.25095,4.25095 -7.92196,6.41768 -13.94014,8.22785 -1.79787,0.54077 -5.78201,0.57439 -73.90032,0.62366 -59.09611,0.0427 -72.37278,-0.0248 -74.08,-0.37684 z"
       id="path4" /><path
       style="fill:#ffffff;fill-opacity:1"
       d="m 541.3711,798.85273 c -2.43051,-0.75002 -5.32761,-2.94175 -6.87244,-5.19917 -2.46078,-3.59589 -2.36475,-2.31065 -2.26629,-30.32875 l 0.0876,-24.93888 1.06472,-2.16245 c 1.3548,-2.75159 3.60746,-5.00415 6.35907,-6.35876 L 541.90655,728.8 h 70.57346 70.57346 l 2.16275,1.06472 c 2.7518,1.3547 5.00437,3.60727 6.35907,6.35907 l 1.06472,2.16275 V 764 789.61346 l -1.06472,2.16275 c -1.35469,2.75177 -3.60726,5.00435 -6.35902,6.35907 l -2.16271,1.06472 -70.08678,0.0592 c -60.55045,0.0511 -70.29208,-0.004 -71.59568,-0.40645 z m -177.92,-86.72 c -2.43051,-0.75002 -5.32761,-2.94175 -6.87244,-5.19917 -2.46079,-3.59589 -2.36475,-2.31065 -2.26629,-30.32875 l 0.0876,-24.93888 1.06472,-2.16245 c 1.35479,-2.75159 3.60746,-5.00415 6.35906,-6.35876 l 2.16276,-1.06472 h 70.57346 70.57346 l 2.16275,1.06472 c 2.75179,1.3547 5.00436,3.60727 6.35907,6.35907 l 1.06472,2.16275 V 677.28 702.89346 l -1.06472,2.16275 c -1.35469,2.75177 -3.60726,5.00435 -6.35903,6.35907 l -2.1627,1.06472 -70.08678,0.0592 c -60.55045,0.0511 -70.29208,-0.004 -71.59568,-0.40645 z m 177.92,-174.08 c -2.43051,-0.75002 -5.32761,-2.94175 -6.87244,-5.19917 -2.46078,-3.59589 -2.36475,-2.31065 -2.26629,-30.32875 l 0.0876,-24.93888 1.06472,-2.16245 c 1.3548,-2.75159 3.60746,-5.00415 6.35907,-6.35876 L 541.90655,468 h 70.57346 70.57346 l 2.16275,1.06472 c 2.7518,1.3547 5.00437,3.60727 6.35907,6.35907 l 1.06472,2.16275 V 503.2 528.81346 l -1.06472,2.16275 c -1.35469,2.75177 -3.60726,5.00435 -6.35902,6.35907 l -2.16271,1.06472 -70.08678,0.0592 c -60.55045,0.0511 -70.29208,-0.004 -71.59568,-0.40645 z m 176.32001,0 c -2.43052,-0.75002 -5.32762,-2.94175 -6.87245,-5.19917 -2.46078,-3.59589 -2.36474,-2.31065 -2.26629,-30.32875 l 0.0876,-24.93888 1.06472,-2.16245 c 1.3548,-2.75159 3.60746,-5.00415 6.35907,-6.35876 L 718.22655,468 h 70.57346 70.57346 l 2.16275,1.06472 c 2.7518,1.3547 5.00437,3.60727 6.35907,6.35907 l 1.06472,2.16275 V 503.2 528.81346 l -1.06472,2.16275 c -1.35469,2.75177 -3.60726,5.00435 -6.35902,6.35907 l -2.16271,1.06472 -70.08677,0.0592 c -60.55046,0.0511 -70.29209,-0.004 -71.59568,-0.40645 z"
       id="path5" /><path
       style="fill:#60b975;fill-opacity:1"
       d="m 541.12001,886.71074 c -3.91181,-1.39838 -7.20374,-4.77698 -8.41876,-8.64038 -0.51216,-1.6285 -0.54956,-3.75971 -0.4689,-26.72 l 0.0877,-24.95036 1.05736,-2.16212 c 1.34777,-2.75597 3.62455,-5.03275 6.38052,-6.38052 L 541.92001,816.8 h 70.56 70.56 l 2.16212,1.05736 c 2.75597,1.34777 5.03275,3.62455 6.38052,6.38052 l 1.05736,2.16212 v 25.6 25.6 l -1.05736,2.16212 c -1.34777,2.75597 -3.62455,5.03275 -6.38052,6.38052 l -2.16212,1.05736 -70.08,0.0699 c -68.95949,0.0688 -70.10814,0.0599 -71.84,-0.55921 z m -177.92,-87.04 c -3.91181,-1.39838 -7.20374,-4.77698 -8.41877,-8.64038 -0.51215,-1.6285 -0.54955,-3.75971 -0.46889,-26.72 l 0.0877,-24.95036 1.05735,-2.16212 c 1.34777,-2.75597 3.62456,-5.03275 6.38053,-6.38052 l 2.16212,-1.05736 h 70.56 70.56 l 2.16212,1.05736 c 2.75596,1.34777 5.03275,3.62455 6.38052,6.38052 l 1.05736,2.16212 v 25.6 25.6 l -1.05736,2.16212 c -1.34777,2.75597 -3.62456,5.03275 -6.38052,6.38052 l -2.16212,1.05736 -70.08,0.07 c -68.95949,0.0688 -70.10815,0.0599 -71.84,-0.55921 z m 354.24,-87.68 c -3.9118,-1.39838 -7.20374,-4.77698 -8.41876,-8.64038 -0.51216,-1.6285 -0.54955,-3.75971 -0.46889,-26.72 l 0.0876,-24.95036 1.05736,-2.16212 c 1.34777,-2.75597 3.62455,-5.03275 6.38052,-6.38052 l 2.16212,-1.05736 h 70.56 70.56 l 2.16212,1.05736 c 2.75597,1.34777 5.03275,3.62455 6.38052,6.38052 l 1.05736,2.16212 v 25.6 25.6 l -1.05736,2.16212 c -1.34777,2.75597 -3.62455,5.03275 -6.38052,6.38052 l -2.16212,1.05736 -70.08,0.0699 c -68.95948,0.0688 -70.10814,0.0599 -71.84,-0.55921 z m -354.24,-87.36 c -3.91181,-1.39838 -7.20374,-4.77698 -8.41877,-8.64038 -0.51215,-1.6285 -0.54955,-3.75971 -0.46889,-26.72 l 0.0877,-24.95036 1.05735,-2.16212 c 1.34777,-2.75597 3.62456,-5.03275 6.38053,-6.38052 l 2.16212,-1.05736 h 70.56 70.56 l 2.16212,1.05736 c 2.75596,1.34777 5.03275,3.62455 6.38052,6.38052 l 1.05736,2.16212 v 25.6 25.6 l -1.05736,2.16212 c -1.34777,2.75597 -3.62456,5.03275 -6.38052,6.38052 l -2.16212,1.05736 -70.08,0.0699 c -68.95949,0.0688 -70.10815,0.0599 -71.84,-0.55921 z m 177.92,0 c -3.91181,-1.39838 -7.20374,-4.77698 -8.41876,-8.64038 -0.51216,-1.6285 -0.54956,-3.75971 -0.4689,-26.72 l 0.0877,-24.95036 1.05736,-2.16212 c 1.34777,-2.75597 3.62455,-5.03275 6.38052,-6.38052 l 2.16212,-1.05736 h 70.56 70.56 l 2.16212,1.05736 c 2.75597,1.34777 5.03275,3.62455 6.38052,6.38052 l 1.05736,2.16212 v 25.6 25.6 l -1.05736,2.16212 c -1.34777,2.75597 -3.62455,5.03275 -6.38052,6.38052 l -2.16212,1.05736 -70.08,0.0699 c -68.95949,0.0688 -70.10814,0.0599 -71.84,-0.55921 z m 176.32,0 c -3.9118,-1.39838 -7.20374,-4.77698 -8.41876,-8.64038 -0.51216,-1.6285 -0.54955,-3.75971 -0.46889,-26.72 l 0.0876,-24.95036 1.05736,-2.16212 c 1.34777,-2.75597 3.62455,-5.03275 6.38052,-6.38052 l 2.16212,-1.05736 h 70.56 70.56 l 2.16212,1.05736 c 2.75597,1.34777 5.03275,3.62455 6.38052,6.38052 l 1.05736,2.16212 v 25.6 25.6 l -1.05736,2.16212 c -1.34777,2.75597 -3.62455,5.03275 -6.38052,6.38052 l -2.16212,1.05736 -70.08,0.0699 c -68.95948,0.0688 -70.10814,0.0599 -71.84,-0.55921 z m -354.24,-173.12 c -3.91181,-1.39838 -7.20374,-4.77698 -8.41877,-8.64038 -0.51215,-1.6285 -0.54955,-3.75971 -0.46889,-26.72 l 0.0877,-24.95036 1.05735,-2.16212 c 1.34777,-2.75597 3.62456,-5.03275 6.38053,-6.38052 L 364.00001,381.6 h 70.56 70.56 l 2.16212,1.05736 c 2.75596,1.34777 5.03275,3.62455 6.38052,6.38052 l 1.05736,2.16212 v 25.6 25.6 l -1.05736,2.16212 c -1.34777,2.75597 -3.62456,5.03275 -6.38052,6.38052 L 505.12001,452 l -70.08,0.07 c -68.95949,0.0688 -70.10815,0.0599 -71.84,-0.55921 z m 177.92,0 c -3.91181,-1.39838 -7.20374,-4.77698 -8.41876,-8.64038 -0.51216,-1.6285 -0.54956,-3.75971 -0.4689,-26.72 l 0.0877,-24.95036 1.05736,-2.16212 c 1.34777,-2.75597 3.62455,-5.03275 6.38052,-6.38052 L 541.92001,381.6 h 70.56 70.56 l 2.16212,1.05736 c 2.75597,1.34777 5.03275,3.62455 6.38052,6.38052 l 1.05736,2.16212 v 25.6 25.6 l -1.05736,2.16212 c -1.34777,2.75597 -3.62455,5.03275 -6.38052,6.38052 L 683.04001,452 l -70.08,0.07 c -68.95949,0.0688 -70.10814,0.0599 -71.84,-0.55921 z"
       id="path6" /><path
       style="fill:#349c4d;fill-opacity:1"
       d="m 541.12001,711.99074 c -3.91181,-1.39838 -7.20374,-4.77698 -8.41876,-8.64038 -0.51216,-1.6285 -0.54956,-3.75971 -0.4689,-26.72 l 0.0877,-24.95036 1.05736,-2.16212 c 1.34777,-2.75597 3.62455,-5.03275 6.38052,-6.38052 l 2.16212,-1.05736 h 70.56 70.56 l 2.16212,1.05736 c 2.75597,1.34777 5.03275,3.62455 6.38052,6.38052 l 1.05736,2.16212 v 25.6 25.6 l -1.05736,2.16212 c -1.34777,2.75597 -3.62455,5.03275 -6.38052,6.38052 l -2.16212,1.05736 -70.08,0.0699 c -68.95949,0.0688 -70.10814,0.0599 -71.84,-0.55921 z m -177.92,-174.08 c -3.91181,-1.39838 -7.20374,-4.77698 -8.41877,-8.64038 -0.51215,-1.6285 -0.54955,-3.75971 -0.46889,-26.72 l 0.0877,-24.95036 1.05735,-2.16212 c 1.34777,-2.75597 3.62456,-5.03275 6.38053,-6.38052 L 364.00001,468 h 70.56 70.56 l 2.16212,1.05736 c 2.75596,1.34777 5.03275,3.62455 6.38052,6.38052 l 1.05736,2.16212 v 25.6 25.6 l -1.05736,2.16212 c -1.34777,2.75597 -3.62456,5.03275 -6.38052,6.38052 l -2.16212,1.05736 -70.08,0.07 c -68.95949,0.0688 -70.10815,0.0599 -71.84,-0.55921 z m 354.24,-86.4 c -3.9118,-1.39838 -7.20374,-4.77698 -8.41876,-8.64038 -0.51216,-1.6285 -0.54955,-3.75971 -0.46889,-26.72 l 0.0876,-24.95036 1.05736,-2.16212 c 1.34777,-2.75597 3.62455,-5.03275 6.38052,-6.38052 L 718.24001,381.6 h 70.56 70.56 l 2.16212,1.05736 c 2.75597,1.34777 5.03275,3.62455 6.38052,6.38052 l 1.05736,2.16212 v 25.6 25.6 l -1.05736,2.16212 c -1.34777,2.75597 -3.62455,5.03275 -6.38052,6.38052 L 859.36001,452 l -70.08,0.07 c -68.95948,0.0688 -70.10814,0.0599 -71.84,-0.55921 z"
       id="path7" /><path
       style="fill:#ffffff;fill-opacity:1"
       d="m 475.84001,784.66284 c -6.64021,-1.41124 -11.41895,-3.19322 -16.0163,-5.97244 -3.94798,-2.38666 -6.28941,-4.28584 -10.1164,-8.20563 -6.90229,-7.06965 -11.00327,-14.93436 -12.8927,-24.72519 -0.63474,-3.28911 -0.65446,-4.44296 -0.64987,-38.01582 0.005,-38.70261 -0.11132,-36.61146 2.30324,-41.30727 1.76906,-3.44046 5.80472,-7.54655 9.08804,-9.24665 6.26275,-3.24283 14.46523,-3.24283 20.72797,0 3.27421,1.69538 7.32323,5.81028 9.06272,9.21016 0.72038,1.408 1.4977,3.136 1.72738,3.84 0.32764,1.00426 0.45512,8.38022 0.59176,34.24 l 0.17416,32.96 0.75772,1.32228 c 0.43764,0.76371 1.31629,1.64236 2.08,2.08 l 1.32228,0.75772 h 43.52 43.52 l 1.32228,-0.75772 c 0.76371,-0.43764 1.64235,-1.31629 2.08,-2.08 l 0.75772,-1.32228 0.17049,-107.52 0.1705,-107.52 0.68433,-2.74858 c 2.44806,-9.83255 6.19741,-16.62994 13.01417,-23.59403 4.37251,-4.46703 8.84559,-7.69765 13.97123,-10.09053 3.64725,-1.70271 6.07587,-2.47431 11.17972,-3.55192 l 3.85975,-0.81494 24.7149,0.005 c 27.70234,0.005 26.82753,-0.0591 31.37792,2.30832 4.85983,2.52836 8.94359,7.31702 10.68147,12.52518 0.77286,2.31617 0.86816,3.07598 0.86816,6.92177 0,3.84579 -0.0953,4.6056 -0.86816,6.92177 -1.73788,5.20816 -5.82164,9.99682 -10.68147,12.52518 -4.66213,2.4255 -3.97595,2.36531 -28.74301,2.52131 -25.18796,0.15864 -24.17545,0.0554 -25.6826,2.6192 l -0.8774,1.49254 -0.16174,107.52 -0.16173,107.52 -1.02071,3.86746 c -2.48559,9.41798 -5.99686,15.63672 -12.67418,22.44701 -6.79828,6.93364 -13.43469,10.75896 -23.07418,13.30024 l -3.86746,1.01959 -49.76,0.0633 c -46.90596,0.0597 -49.91601,0.0302 -52.48,-0.51477 z"
       id="path8" /><path
       style="fill:#157a42;fill-opacity:1"
       d="m 478.24001,769.3922 c -7.27484,-1.56471 -12.92865,-4.76178 -17.98324,-10.16902 -3.72615,-3.98612 -6.15334,-8.3928 -7.85612,-14.26318 -0.69229,-2.3867 -0.69671,-2.58753 -0.79682,-36.23623 -0.0988,-33.20835 -0.0889,-33.85931 0.53372,-35.07975 2.40071,-4.70579 9.15927,-4.71545 11.55649,-0.0165 0.60807,1.19192 0.62613,2.08978 0.63151,31.39975 0.003,17.5411 0.1376,31.42642 0.32097,33.16734 0.71543,6.79227 3.97828,12.18626 9.40751,15.55205 2.84203,1.76189 5.41665,2.62923 9.03532,3.04381 3.86711,0.44304 85.02245,0.4398 88.89261,-0.004 6.69857,-0.76737 12.03755,-4.03403 15.36469,-9.40091 1.79537,-2.89604 2.65853,-5.50601 3.05008,-9.2226 0.1961,-1.86147 0.31425,-41.77343 0.31773,-107.33523 0.006,-112.30545 -0.0831,-106.12736 1.60297,-111.14815 0.83319,-2.48103 2.86541,-6.59444 4.25908,-8.62077 1.76787,-2.57043 6.03943,-6.73581 8.77215,-8.55409 3.3891,-2.25503 7.05119,-3.80257 11.29135,-4.77152 l 3.36,-0.76782 22.97275,-0.003 c 22.30877,-0.003 23.00884,0.0155 24.22146,0.63415 2.5766,1.31448 3.998,4.4937 3.25354,7.27716 -0.52464,1.96156 -1.67154,3.43844 -3.34629,4.30905 -1.33071,0.69177 -1.52608,0.69896 -24.38146,0.89741 -22.89551,0.1988 -23.05305,0.20462 -25.12,0.92832 -6.58415,2.30528 -11.18585,7.23516 -13.321,14.27101 -0.55704,1.8356 -0.59042,6.65333 -0.75943,109.6 l -0.17678,107.68 -0.69979,2.4 c -1.93975,6.65251 -4.19405,10.50932 -8.88387,15.19914 -4.69059,4.69059 -8.55332,6.94806 -15.19913,8.88273 l -2.4,0.69867 -47.84,0.0667 c -41.57191,0.058 -48.13349,0.004 -50.08,-0.41507 z"
       id="path9" /></g></svg>
